<svg width="72" height="72" viewBox="0 0 72 72" fill="none" xmlns="http://www.w3.org/2000/svg">
<ellipse cx="35.8283" cy="36" rx="35.8283" ry="36" fill="#00C9A7"/>
<path d="M18.6917 23.7293H53.8797C56.4601 23.7293 58.5714 25.8406 58.5714 28.421V49.5338H14V28.421C14 25.8406 16.1113 23.7293 18.6917 23.7293Z" fill="#9575CD"/>
<path d="M14 49.5338H58.5714V51.8797C58.5714 54.4602 56.4601 56.5714 53.8797 56.5714H18.6917C16.1113 56.5714 14 54.4602 14 51.8797V49.5338ZM51.5338 26.0752H40.9774C39.6872 26.0752 38.6316 25.0195 38.6316 23.7293V17.8647C38.6316 16.5744 39.6872 15.5188 40.9774 15.5188H51.5338C52.8241 15.5188 53.8797 16.5744 53.8797 17.8647V23.7293C53.8797 25.0195 52.8241 26.0752 51.5338 26.0752ZM21.0376 26.0752H35.1128V30.7669H21.0376V26.0752Z" fill="#673AB7"/>
<path d="M35.1128 12L32.7669 13.1729L30.4211 12L28.0752 13.1729L25.7293 12L23.3835 13.1729L21.0376 12V28.4211H35.1128V12Z" fill="#90CAF9"/>
<path d="M40.9775 17.8646H51.5339V23.7293H40.9775V17.8646Z" fill="#2196F3"/>
<path d="M19.8643 33.1128H24.556V37.8045H19.8643V33.1128ZM26.9019 33.1128H31.5936V37.8045H26.9019V33.1128ZM33.9395 33.1128H38.6312V37.8045H33.9395V33.1128ZM40.9771 33.1128H45.6688V37.8045H40.9771V33.1128ZM48.0147 33.1128H52.7064V37.8045H48.0147V33.1128ZM19.8643 40.1504H24.556V44.8421H19.8643V40.1504ZM26.9019 40.1504H31.5936V44.8421H26.9019V40.1504ZM33.9395 40.1504H38.6312V44.8421H33.9395V40.1504ZM40.9771 40.1504H45.6688V44.8421H40.9771V40.1504ZM48.0147 40.1504H52.7064V44.8421H48.0147V40.1504Z" fill="#B39DDB"/>
<path d="M36.2853 54.8121C37.257 54.8121 38.0447 54.0244 38.0447 53.0527C38.0447 52.081 37.257 51.2933 36.2853 51.2933C35.3136 51.2933 34.5259 52.081 34.5259 53.0527C34.5259 54.0244 35.3136 54.8121 36.2853 54.8121Z" fill="#B39DDB"/>
</svg>
