<svg xmlns="http://www.w3.org/2000/svg" width="24" height="24" fill="none" viewBox="0 0 24 24" id="news-feed"><path fill="#5E94FF" d="M5 1.25C2.92893 1.25 1.25 2.92893 1.25 5V19C1.25 21.0711 2.92893 22.75 5 22.75H19C21.0711 22.75 22.75 21.0711 22.75 19V5C22.75 2.92893 21.0711 1.25 19 1.25H5Z"></path><path fill="#5485E5" fill-rule="evenodd" d="M12 1.25V22.75H5C2.92893 22.75 1.25 21.0711 1.25 19V5C1.25 2.92893 2.92893 1.25 5 1.25H12Z" clip-rule="evenodd"></path><path fill="#ECEFF1" d="M5 1.25C2.92893 1.25 1.25 2.92893 1.25 5V9C1.25 9.41421 1.58579 9.75 2 9.75H22C22.4142 9.75 22.75 9.41421 22.75 9V5C22.75 2.92893 21.0711 1.25 19 1.25H5Z"></path><path fill="#D4D6D8" fill-rule="evenodd" d="M12 1.25V9.75H2C1.58579 9.75 1.25 9.41421 1.25 9V5C1.25 2.92893 2.92893 1.25 5 1.25H12Z" clip-rule="evenodd"></path><path fill="#5485E5" d="M6.5 3.25C5.25736 3.25 4.25 4.25736 4.25 5.5C4.25 6.74264 5.25736 7.75 6.5 7.75C7.74264 7.75 8.75 6.74264 8.75 5.5C8.75 4.25736 7.74264 3.25 6.5 3.25Z"></path><path fill="#8B98A6" fill-rule="evenodd" d="M10.25 5.5C10.25 5.08579 10.5858 4.75 11 4.75H19C19.4142 4.75 19.75 5.08579 19.75 5.5C19.75 5.91421 19.4142 6.25 19 6.25H11C10.5858 6.25 10.25 5.91421 10.25 5.5Z" clip-rule="evenodd"></path><path fill="#7D8995" fill-rule="evenodd" d="M12 4.75V6.25H11C10.5858 6.25 10.25 5.91421 10.25 5.5C10.25 5.08579 10.5858 4.75 11 4.75H12Z" clip-rule="evenodd"></path></svg>