<svg width="77" height="72" viewBox="0 0 77 72" fill="none" xmlns="http://www.w3.org/2000/svg">
<ellipse cx="35.8283" cy="36" rx="35.8283" ry="36" fill="#613E9E"/>
<path d="M31.7376 13.1666C29.121 13.1666 27 15.0416 27 17.3333V34V42.3333V54.8333C27 57.125 29.121 59 31.7376 59H64.901C67.5185 59 69.6386 57.125 69.6386 54.8333V42.3333V34V25.6666V17.3333C69.6386 15.0416 67.5185 13.1666 64.901 13.1666H55.4257H31.7376Z" fill="#BDC3C7"/>
<path d="M34.1064 9C32.7981 9 31.7375 9.83333 31.7375 11.0833V17.3333C31.7375 18.375 32.7981 19.4167 34.1064 19.4167C35.4147 19.4167 36.4752 18.375 36.4752 17.3333V11.0833C36.4752 9.83333 35.4147 9 34.1064 9ZM43.5816 9C42.2733 9 41.2128 9.83333 41.2128 11.0833V17.3333C41.2128 18.375 42.2733 19.4167 43.5816 19.4167C44.8892 19.4167 45.9504 18.375 45.9504 17.3333V11.0833C45.9504 9.83333 44.8892 9 43.5816 9ZM53.0568 9C51.7493 9 50.688 9.83333 50.688 11.0833V17.3333C50.688 18.375 51.7493 19.4167 53.0568 19.4167C54.3644 19.4167 55.4256 18.375 55.4256 17.3333V11.0833C55.4256 9.83333 54.3644 9 53.0568 9ZM62.5321 9C61.2245 9 60.1633 9.83333 60.1633 11.0833V17.3333C60.1633 18.375 61.2245 19.4167 62.5321 19.4167C63.8397 19.4167 64.9009 18.375 64.9009 17.3333V11.0833C64.9009 9.83333 63.8397 9 62.5321 9Z" fill="#95A5A6"/>
<path d="M62.5322 40.25H34.1064V42.3333H62.5322V40.25Z" fill="#95A5A6"/>
<path d="M62.5322 34H34.1064V36.0833H62.5322V34Z" fill="#95A5A6"/>
<path d="M62.5322 27.75H34.1064V29.8333H62.5322V27.75Z" fill="#95A5A6"/>
<path d="M43.5817 46.5H34.1064V48.5833H43.5817V46.5Z" fill="#95A5A6"/>
<path d="M31.7375 17.3334C31.7375 18.375 32.7981 19.4167 34.1064 19.4167C35.4147 19.4167 36.4752 18.375 36.4752 17.3334H31.7375ZM41.2128 17.3334C41.2128 18.375 42.2733 19.4167 43.5816 19.4167C44.8892 19.4167 45.9504 18.375 45.9504 17.3334H41.2128ZM50.688 17.3334C50.688 18.375 51.7493 19.4167 53.0568 19.4167C54.3644 19.4167 55.4256 18.375 55.4256 17.3334H50.688ZM60.1633 17.3334C60.1633 18.375 61.2245 19.4167 62.5321 19.4167C63.8397 19.4167 64.9009 18.375 64.9009 17.3334H60.1633Z" fill="#7F8C8D"/>
<path d="M27 52.75V54.8333C27 57.125 29.121 59 31.7376 59H64.901C67.5185 59 69.6386 57.125 69.6386 54.8333V52.75C69.6386 55.0417 67.5185 56.9167 64.901 56.9167H31.7376C29.121 56.9167 27 55.0417 27 52.75Z" fill="#95A5A6"/>
<path d="M65.2749 23.5131L46.3473 40.1596L45.1748 41.1908L43.4998 42.664L43.4998 48.5565L50.1998 48.5565L51.8748 47.0834L53.0474 46.0522L71.9749 29.4056L65.2749 23.5131Z" fill="#ECF0F1"/>
<path d="M68.625 26.4593L43.4999 48.5565L50.1999 48.5565L51.8749 47.0833L53.0474 46.0521L71.975 29.4056L68.625 26.4593Z" fill="#BDC3C7"/>
<path d="M70.2999 30.8787L63.5999 24.9861L45.1748 41.1907L51.8748 47.0833L70.2999 30.8787Z" fill="#E67E22"/>
<path d="M73.6501 22.0399C71.7992 20.412 68.7925 20.4194 66.95 22.0399L65.275 23.513L71.9751 29.4056L73.6501 27.9324C75.4926 26.312 75.501 23.6677 73.6501 22.0399Z" fill="#7F8C8D"/>
<path d="M43.4897 44.4229L43.4998 48.5565L48.1999 48.5653L45.8448 46.4941L43.4897 44.4229Z" fill="#34495E"/>
<path d="M45.845 46.4941L43.4999 48.5565L48.2 48.5653L45.845 46.4941Z" fill="#2C3E50"/>
<path d="M73.6501 22.0399C71.7992 20.412 68.7925 20.4194 66.95 22.0399L65.275 23.513L68.625 26.4593L73.6501 22.0399Z" fill="#95A5A6"/>
<path d="M70.3 30.8787L66.95 27.9324L48.5249 44.137L51.8749 47.0833L70.3 30.8787Z" fill="#D35400"/>
</svg>
