<svg width="596" height="305" viewBox="0 0 596 305" fill="none" xmlns="http://www.w3.org/2000/svg">
<rect x="151.5" y="195.5" width="300" height="109" rx="54.5" fill="#122F5B" stroke="white"/>
<ellipse cx="548.427" cy="125" rx="47.427" ry="47" fill="#5652FD"/>
<path d="M523.825 105.07C523.742 104.801 523.628 104.561 523.482 104.349C523.34 104.133 523.167 103.949 522.965 103.797C522.766 103.644 522.538 103.53 522.279 103.454C522.021 103.374 521.739 103.335 521.434 103.335C520.887 103.335 520.4 103.472 519.972 103.747C519.545 104.022 519.208 104.427 518.963 104.96C518.721 105.491 518.6 106.137 518.6 106.899C518.6 107.668 518.721 108.319 518.963 108.853C519.205 109.387 519.541 109.793 519.972 110.071C520.403 110.346 520.904 110.484 521.474 110.484C521.991 110.484 522.438 110.384 522.816 110.185C523.197 109.987 523.491 109.705 523.696 109.34C523.902 108.972 524.004 108.541 524.004 108.048L524.422 108.112H521.658V106.67H525.789V107.893C525.789 108.765 525.603 109.519 525.232 110.156C524.861 110.792 524.351 111.282 523.701 111.627C523.051 111.969 522.306 112.139 521.464 112.139C520.526 112.139 519.702 111.929 518.993 111.508C518.287 111.084 517.735 110.482 517.337 109.703C516.943 108.921 516.746 107.993 516.746 106.919C516.746 106.097 516.862 105.363 517.094 104.717C517.329 104.07 517.657 103.522 518.078 103.071C518.499 102.617 518.993 102.272 519.56 102.037C520.126 101.798 520.743 101.679 521.409 101.679C521.973 101.679 522.498 101.762 522.985 101.928C523.472 102.09 523.905 102.322 524.283 102.624C524.664 102.925 524.977 103.283 525.222 103.697C525.468 104.112 525.628 104.569 525.705 105.07H523.825ZM530.824 112.149C530.078 112.149 529.432 111.985 528.885 111.657C528.338 111.329 527.914 110.87 527.612 110.28C527.314 109.69 527.165 109 527.165 108.212C527.165 107.423 527.314 106.732 527.612 106.138C527.914 105.545 528.338 105.085 528.885 104.756C529.432 104.428 530.078 104.264 530.824 104.264C531.57 104.264 532.216 104.428 532.763 104.756C533.31 105.085 533.732 105.545 534.031 106.138C534.332 106.732 534.483 107.423 534.483 108.212C534.483 109 534.332 109.69 534.031 110.28C533.732 110.87 533.31 111.329 532.763 111.657C532.216 111.985 531.57 112.149 530.824 112.149ZM530.834 110.707C531.238 110.707 531.576 110.596 531.848 110.374C532.12 110.149 532.322 109.847 532.455 109.469C532.591 109.092 532.659 108.671 532.659 108.207C532.659 107.739 532.591 107.317 532.455 106.939C532.322 106.558 532.12 106.254 531.848 106.029C531.576 105.804 531.238 105.691 530.834 105.691C530.42 105.691 530.075 105.804 529.8 106.029C529.528 106.254 529.324 106.558 529.188 106.939C529.056 107.317 528.99 107.739 528.99 108.207C528.99 108.671 529.056 109.092 529.188 109.469C529.324 109.847 529.528 110.149 529.8 110.374C530.075 110.596 530.42 110.707 530.834 110.707ZM539.342 112.149C538.596 112.149 537.95 111.985 537.403 111.657C536.856 111.329 536.432 110.87 536.13 110.28C535.832 109.69 535.683 109 535.683 108.212C535.683 107.423 535.832 106.732 536.13 106.138C536.432 105.545 536.856 105.085 537.403 104.756C537.95 104.428 538.596 104.264 539.342 104.264C540.087 104.264 540.734 104.428 541.281 104.756C541.827 105.085 542.25 105.545 542.548 106.138C542.85 106.732 543.001 107.423 543.001 108.212C543.001 109 542.85 109.69 542.548 110.28C542.25 110.87 541.827 111.329 541.281 111.657C540.734 111.985 540.087 112.149 539.342 112.149ZM539.352 110.707C539.756 110.707 540.094 110.596 540.366 110.374C540.638 110.149 540.84 109.847 540.972 109.469C541.108 109.092 541.176 108.671 541.176 108.207C541.176 107.739 541.108 107.317 540.972 106.939C540.84 106.558 540.638 106.254 540.366 106.029C540.094 105.804 539.756 105.691 539.352 105.691C538.937 105.691 538.593 105.804 538.317 106.029C538.046 106.254 537.842 106.558 537.706 106.939C537.573 107.317 537.507 107.739 537.507 108.207C537.507 108.671 537.573 109.092 537.706 109.469C537.842 109.847 538.046 110.149 538.317 110.374C538.593 110.596 538.937 110.707 539.352 110.707ZM547.362 112.134C546.762 112.134 546.225 111.98 545.751 111.672C545.277 111.364 544.903 110.916 544.628 110.33C544.353 109.743 544.215 109.03 544.215 108.192C544.215 107.343 544.354 106.627 544.633 106.044C544.914 105.457 545.294 105.015 545.771 104.717C546.248 104.415 546.78 104.264 547.367 104.264C547.814 104.264 548.182 104.34 548.471 104.493C548.759 104.642 548.988 104.823 549.157 105.035C549.326 105.244 549.457 105.441 549.55 105.626H549.624V101.818H551.429V112H549.659V110.797H549.55C549.457 110.982 549.323 111.18 549.147 111.388C548.971 111.594 548.739 111.77 548.451 111.915C548.162 112.061 547.8 112.134 547.362 112.134ZM547.864 110.658C548.245 110.658 548.57 110.555 548.839 110.349C549.107 110.141 549.311 109.851 549.45 109.479C549.589 109.108 549.659 108.676 549.659 108.182C549.659 107.688 549.589 107.259 549.45 106.894C549.314 106.53 549.112 106.246 548.844 106.044C548.578 105.842 548.252 105.741 547.864 105.741C547.463 105.741 547.128 105.845 546.86 106.054C546.591 106.263 546.389 106.551 546.253 106.919C546.117 107.287 546.05 107.708 546.05 108.182C546.05 108.659 546.117 109.085 546.253 109.46C546.393 109.831 546.596 110.124 546.865 110.339C547.137 110.552 547.47 110.658 547.864 110.658ZM517.004 129V118.818H520.902C521.638 118.818 522.249 118.934 522.737 119.166C523.227 119.395 523.593 119.708 523.835 120.106C524.08 120.504 524.203 120.954 524.203 121.458C524.203 121.872 524.124 122.227 523.964 122.522C523.805 122.814 523.592 123.051 523.323 123.233C523.055 123.415 522.755 123.546 522.423 123.626V123.725C522.785 123.745 523.131 123.856 523.462 124.058C523.797 124.257 524.071 124.539 524.283 124.903C524.495 125.268 524.601 125.709 524.601 126.226C524.601 126.753 524.473 127.227 524.218 127.648C523.963 128.065 523.578 128.395 523.065 128.637C522.551 128.879 521.905 129 521.126 129H517.004ZM518.849 127.459H520.832C521.502 127.459 521.984 127.331 522.279 127.076C522.577 126.817 522.727 126.486 522.727 126.082C522.727 125.78 522.652 125.508 522.503 125.266C522.354 125.021 522.142 124.829 521.866 124.69C521.591 124.547 521.263 124.476 520.882 124.476H518.849V127.459ZM518.849 123.148H520.673C520.991 123.148 521.278 123.09 521.533 122.974C521.789 122.855 521.989 122.688 522.135 122.472C522.284 122.254 522.359 121.995 522.359 121.697C522.359 121.302 522.219 120.978 521.941 120.722C521.666 120.467 521.257 120.339 520.713 120.339H518.849V123.148ZM530.993 125.788V121.364H532.793V129H531.048V127.643H530.968C530.796 128.07 530.512 128.42 530.118 128.692C529.727 128.964 529.245 129.099 528.671 129.099C528.171 129.099 527.728 128.988 527.344 128.766C526.963 128.541 526.664 128.214 526.449 127.787C526.234 127.356 526.126 126.836 526.126 126.226V121.364H527.926V125.947C527.926 126.431 528.058 126.816 528.323 127.101C528.588 127.386 528.936 127.528 529.367 127.528C529.633 127.528 529.889 127.464 530.138 127.335C530.387 127.205 530.59 127.013 530.749 126.758C530.912 126.499 530.993 126.176 530.993 125.788ZM540.679 123.382L539.038 123.561C538.992 123.395 538.911 123.24 538.795 123.094C538.682 122.948 538.53 122.83 538.337 122.741C538.145 122.651 537.91 122.607 537.631 122.607C537.257 122.607 536.942 122.688 536.687 122.85C536.435 123.013 536.311 123.223 536.314 123.482C536.311 123.704 536.392 123.884 536.558 124.023C536.727 124.163 537.005 124.277 537.393 124.366L538.695 124.645C539.418 124.801 539.955 125.048 540.306 125.386C540.661 125.724 540.84 126.166 540.843 126.713C540.84 127.194 540.699 127.618 540.42 127.986C540.145 128.35 539.763 128.635 539.272 128.841C538.781 129.046 538.218 129.149 537.582 129.149C536.647 129.149 535.895 128.954 535.325 128.562C534.754 128.168 534.415 127.62 534.305 126.917L536.06 126.748C536.14 127.093 536.309 127.353 536.567 127.528C536.826 127.704 537.162 127.792 537.577 127.792C538.004 127.792 538.347 127.704 538.606 127.528C538.868 127.353 538.999 127.136 538.999 126.877C538.999 126.658 538.914 126.478 538.745 126.335C538.579 126.193 538.321 126.083 537.969 126.007L536.667 125.734C535.934 125.581 535.393 125.324 535.041 124.963C534.69 124.598 534.516 124.138 534.519 123.581C534.516 123.11 534.643 122.703 534.902 122.358C535.164 122.01 535.527 121.741 535.991 121.553C536.458 121.36 536.997 121.264 537.607 121.264C538.501 121.264 539.206 121.455 539.719 121.836C540.237 122.217 540.556 122.732 540.679 123.382ZM542.327 129V121.364H544.127V129H542.327ZM543.232 120.28C542.947 120.28 542.702 120.185 542.496 119.996C542.291 119.804 542.188 119.574 542.188 119.305C542.188 119.034 542.291 118.803 542.496 118.614C542.702 118.422 542.947 118.326 543.232 118.326C543.52 118.326 543.766 118.422 543.968 118.614C544.173 118.803 544.276 119.034 544.276 119.305C544.276 119.574 544.173 119.804 543.968 119.996C543.766 120.185 543.52 120.28 543.232 120.28ZM547.777 124.526V129H545.977V121.364H547.698V122.661H547.787C547.963 122.234 548.243 121.894 548.627 121.642C549.015 121.39 549.494 121.264 550.064 121.264C550.591 121.264 551.05 121.377 551.441 121.602C551.836 121.828 552.141 122.154 552.356 122.582C552.575 123.009 552.682 123.528 552.679 124.138V129H550.879V124.416C550.879 123.906 550.747 123.506 550.482 123.218C550.22 122.93 549.857 122.786 549.393 122.786C549.078 122.786 548.798 122.855 548.553 122.994C548.311 123.13 548.12 123.327 547.981 123.586C547.845 123.844 547.777 124.158 547.777 124.526ZM557.889 129.149C557.124 129.149 556.463 128.99 555.906 128.672C555.352 128.35 554.926 127.896 554.628 127.31C554.33 126.72 554.181 126.025 554.181 125.227C554.181 124.441 554.33 123.752 554.628 123.158C554.93 122.562 555.351 122.098 555.891 121.766C556.431 121.432 557.066 121.264 557.795 121.264C558.266 121.264 558.71 121.34 559.127 121.493C559.548 121.642 559.919 121.874 560.241 122.189C560.566 122.504 560.821 122.905 561.007 123.392C561.192 123.876 561.285 124.453 561.285 125.122V125.674H555.026V124.461H559.56C559.557 124.116 559.482 123.81 559.336 123.541C559.19 123.269 558.986 123.056 558.725 122.9C558.466 122.744 558.164 122.666 557.82 122.666C557.452 122.666 557.129 122.756 556.85 122.935C556.572 123.11 556.355 123.342 556.199 123.631C556.047 123.916 555.969 124.229 555.965 124.57V125.629C555.965 126.073 556.047 126.455 556.209 126.773C556.371 127.088 556.598 127.33 556.89 127.499C557.182 127.664 557.523 127.747 557.914 127.747C558.176 127.747 558.413 127.711 558.625 127.638C558.837 127.562 559.021 127.451 559.177 127.305C559.333 127.159 559.45 126.978 559.53 126.763L561.21 126.952C561.104 127.396 560.902 127.784 560.604 128.115C560.309 128.443 559.931 128.698 559.47 128.881C559.01 129.06 558.483 129.149 557.889 129.149ZM568.843 123.382L567.202 123.561C567.156 123.395 567.075 123.24 566.959 123.094C566.846 122.948 566.694 122.83 566.501 122.741C566.309 122.651 566.074 122.607 565.795 122.607C565.421 122.607 565.106 122.688 564.851 122.85C564.599 123.013 564.475 123.223 564.478 123.482C564.475 123.704 564.556 123.884 564.722 124.023C564.891 124.163 565.169 124.277 565.557 124.366L566.859 124.645C567.582 124.801 568.119 125.048 568.47 125.386C568.825 125.724 569.004 126.166 569.007 126.713C569.004 127.194 568.863 127.618 568.585 127.986C568.309 128.35 567.927 128.635 567.436 128.841C566.946 129.046 566.382 129.149 565.746 129.149C564.811 129.149 564.059 128.954 563.489 128.562C562.919 128.168 562.579 127.62 562.469 126.917L564.224 126.748C564.304 127.093 564.473 127.353 564.732 127.528C564.99 127.704 565.326 127.792 565.741 127.792C566.168 127.792 566.511 127.704 566.77 127.528C567.032 127.353 567.163 127.136 567.163 126.877C567.163 126.658 567.078 126.478 566.909 126.335C566.743 126.193 566.485 126.083 566.134 126.007L564.831 125.734C564.098 125.581 563.557 125.324 563.205 124.963C562.854 124.598 562.68 124.138 562.683 123.581C562.68 123.11 562.808 122.703 563.066 122.358C563.328 122.01 563.691 121.741 564.155 121.553C564.622 121.36 565.161 121.264 565.771 121.264C566.665 121.264 567.37 121.455 567.884 121.836C568.401 122.217 568.72 122.732 568.843 123.382ZM576.527 123.382L574.886 123.561C574.84 123.395 574.758 123.24 574.642 123.094C574.53 122.948 574.377 122.83 574.185 122.741C573.993 122.651 573.757 122.607 573.479 122.607C573.105 122.607 572.79 122.688 572.534 122.85C572.283 123.013 572.158 123.223 572.162 123.482C572.158 123.704 572.239 123.884 572.405 124.023C572.574 124.163 572.853 124.277 573.24 124.366L574.543 124.645C575.266 124.801 575.802 125.048 576.154 125.386C576.508 125.724 576.687 126.166 576.691 126.713C576.687 127.194 576.547 127.618 576.268 127.986C575.993 128.35 575.61 128.635 575.12 128.841C574.629 129.046 574.066 129.149 573.429 129.149C572.495 129.149 571.742 128.954 571.172 128.562C570.602 128.168 570.262 127.62 570.153 126.917L571.908 126.748C571.988 127.093 572.157 127.353 572.415 127.528C572.674 127.704 573.01 127.792 573.424 127.792C573.852 127.792 574.195 127.704 574.453 127.528C574.715 127.353 574.846 127.136 574.846 126.877C574.846 126.658 574.762 126.478 574.593 126.335C574.427 126.193 574.168 126.083 573.817 126.007L572.515 125.734C571.782 125.581 571.24 125.324 570.889 124.963C570.538 124.598 570.364 124.138 570.367 123.581C570.364 123.11 570.491 122.703 570.75 122.358C571.011 122.01 571.374 121.741 571.838 121.553C572.306 121.36 572.844 121.264 573.454 121.264C574.349 121.264 575.053 121.455 575.567 121.836C576.084 122.217 576.404 122.732 576.527 123.382ZM522.538 138.617C522.491 138.183 522.296 137.845 521.951 137.603C521.61 137.361 521.165 137.24 520.619 137.24C520.234 137.24 519.904 137.298 519.629 137.414C519.354 137.53 519.144 137.687 518.998 137.886C518.852 138.085 518.777 138.312 518.774 138.567C518.774 138.78 518.822 138.964 518.918 139.119C519.018 139.275 519.152 139.408 519.321 139.517C519.49 139.623 519.677 139.713 519.883 139.786C520.088 139.858 520.295 139.92 520.504 139.969L521.459 140.208C521.843 140.298 522.213 140.419 522.567 140.571C522.925 140.723 523.245 140.916 523.527 141.148C523.812 141.38 524.037 141.66 524.203 141.988C524.369 142.316 524.452 142.701 524.452 143.141C524.452 143.738 524.299 144.263 523.994 144.717C523.689 145.168 523.249 145.521 522.672 145.776C522.098 146.028 521.404 146.154 520.589 146.154C519.797 146.154 519.109 146.031 518.526 145.786C517.946 145.541 517.491 145.183 517.163 144.712C516.839 144.242 516.663 143.668 516.636 142.992H518.451C518.478 143.347 518.587 143.642 518.779 143.877C518.971 144.112 519.222 144.288 519.53 144.404C519.841 144.52 520.189 144.578 520.574 144.578C520.975 144.578 521.326 144.518 521.628 144.399C521.933 144.277 522.171 144.107 522.344 143.892C522.516 143.673 522.604 143.418 522.607 143.126C522.604 142.861 522.526 142.643 522.374 142.47C522.221 142.295 522.007 142.149 521.732 142.033C521.46 141.913 521.142 141.807 520.778 141.714L519.619 141.416C518.781 141.201 518.118 140.874 517.631 140.437C517.147 139.996 516.905 139.411 516.905 138.682C516.905 138.082 517.067 137.557 517.392 137.106C517.72 136.655 518.166 136.305 518.729 136.057C519.293 135.805 519.931 135.679 520.643 135.679C521.366 135.679 521.999 135.805 522.543 136.057C523.089 136.305 523.519 136.652 523.83 137.096C524.142 137.537 524.303 138.044 524.312 138.617H522.538ZM529.83 138.364V139.756H525.44V138.364H529.83ZM526.524 136.534H528.323V143.703C528.323 143.945 528.36 144.131 528.433 144.26C528.509 144.386 528.608 144.472 528.731 144.518C528.854 144.565 528.99 144.588 529.139 144.588C529.251 144.588 529.354 144.58 529.447 144.563C529.543 144.547 529.616 144.532 529.666 144.518L529.969 145.925C529.873 145.959 529.735 145.995 529.556 146.035C529.381 146.075 529.165 146.098 528.91 146.104C528.459 146.118 528.053 146.05 527.692 145.901C527.331 145.748 527.044 145.513 526.832 145.195C526.623 144.876 526.52 144.479 526.524 144.001V136.534ZM531.335 146V138.364H533.08V139.636H533.159C533.299 139.196 533.537 138.856 533.875 138.617C534.217 138.375 534.606 138.254 535.044 138.254C535.143 138.254 535.254 138.259 535.377 138.269C535.503 138.276 535.607 138.287 535.69 138.304V139.96C535.614 139.933 535.493 139.91 535.327 139.89C535.165 139.867 535.007 139.855 534.855 139.855C534.527 139.855 534.232 139.926 533.97 140.069C533.711 140.208 533.507 140.402 533.358 140.651C533.209 140.899 533.135 141.186 533.135 141.511V146H531.335ZM538.946 146.154C538.462 146.154 538.027 146.068 537.639 145.896C537.254 145.72 536.949 145.461 536.724 145.12C536.502 144.779 536.391 144.358 536.391 143.857C536.391 143.426 536.471 143.07 536.63 142.788C536.789 142.507 537.006 142.281 537.281 142.112C537.556 141.943 537.866 141.816 538.211 141.729C538.559 141.64 538.918 141.575 539.289 141.536C539.737 141.489 540.1 141.448 540.378 141.411C540.657 141.371 540.859 141.312 540.985 141.232C541.114 141.149 541.179 141.022 541.179 140.849V140.82C541.179 140.445 541.068 140.155 540.846 139.95C540.623 139.744 540.304 139.641 539.886 139.641C539.445 139.641 539.096 139.737 538.837 139.93C538.582 140.122 538.409 140.349 538.32 140.611L536.64 140.372C536.772 139.908 536.991 139.52 537.296 139.209C537.601 138.894 537.974 138.659 538.414 138.503C538.855 138.344 539.342 138.264 539.876 138.264C540.244 138.264 540.61 138.307 540.975 138.393C541.339 138.48 541.672 138.622 541.974 138.821C542.276 139.017 542.518 139.283 542.7 139.621C542.886 139.96 542.978 140.382 542.978 140.889V146H541.248V144.951H541.189C541.079 145.163 540.925 145.362 540.726 145.548C540.531 145.73 540.284 145.877 539.985 145.99C539.69 146.099 539.344 146.154 538.946 146.154ZM539.414 144.832C539.775 144.832 540.088 144.76 540.353 144.618C540.618 144.472 540.822 144.28 540.965 144.041C541.111 143.803 541.184 143.542 541.184 143.261V142.361C541.127 142.407 541.031 142.45 540.895 142.49C540.763 142.53 540.614 142.565 540.448 142.594C540.282 142.624 540.118 142.651 539.956 142.674C539.793 142.697 539.652 142.717 539.533 142.734C539.265 142.77 539.024 142.83 538.812 142.913C538.6 142.996 538.433 143.112 538.31 143.261C538.187 143.406 538.126 143.595 538.126 143.827C538.126 144.159 538.247 144.409 538.489 144.578C538.731 144.747 539.039 144.832 539.414 144.832ZM548.601 138.364V139.756H544.211V138.364H548.601ZM545.295 136.534H547.095V143.703C547.095 143.945 547.131 144.131 547.204 144.26C547.28 144.386 547.38 144.472 547.502 144.518C547.625 144.565 547.761 144.588 547.91 144.588C548.023 144.588 548.126 144.58 548.218 144.563C548.315 144.547 548.387 144.532 548.437 144.518L548.74 145.925C548.644 145.959 548.507 145.995 548.328 146.035C548.152 146.075 547.937 146.098 547.681 146.104C547.231 146.118 546.825 146.05 546.463 145.901C546.102 145.748 545.815 145.513 545.603 145.195C545.395 144.876 545.292 144.479 545.295 144.001V136.534ZM553.405 146.149C552.639 146.149 551.978 145.99 551.421 145.672C550.868 145.35 550.442 144.896 550.144 144.31C549.845 143.72 549.696 143.025 549.696 142.227C549.696 141.441 549.845 140.752 550.144 140.158C550.445 139.562 550.866 139.098 551.406 138.766C551.947 138.432 552.581 138.264 553.311 138.264C553.781 138.264 554.225 138.34 554.643 138.493C555.064 138.642 555.435 138.874 555.757 139.189C556.081 139.504 556.337 139.905 556.522 140.392C556.708 140.876 556.801 141.453 556.801 142.122V142.674H550.541V141.461H555.075C555.072 141.116 554.998 140.81 554.852 140.541C554.706 140.269 554.502 140.056 554.24 139.9C553.982 139.744 553.68 139.666 553.335 139.666C552.968 139.666 552.644 139.756 552.366 139.935C552.088 140.11 551.87 140.342 551.715 140.631C551.562 140.916 551.484 141.229 551.481 141.57V142.629C551.481 143.073 551.562 143.455 551.725 143.773C551.887 144.088 552.114 144.33 552.406 144.499C552.697 144.664 553.039 144.747 553.43 144.747C553.692 144.747 553.929 144.711 554.141 144.638C554.353 144.562 554.537 144.451 554.693 144.305C554.848 144.159 554.966 143.978 555.046 143.763L556.726 143.952C556.62 144.396 556.418 144.784 556.119 145.115C555.825 145.443 555.447 145.698 554.986 145.881C554.525 146.06 553.998 146.149 553.405 146.149ZM561.644 149.023C560.998 149.023 560.443 148.935 559.979 148.759C559.515 148.587 559.142 148.355 558.86 148.063C558.578 147.772 558.383 147.448 558.273 147.094L559.894 146.701C559.967 146.85 560.073 146.998 560.212 147.143C560.352 147.293 560.539 147.415 560.774 147.511C561.013 147.611 561.313 147.661 561.674 147.661C562.184 147.661 562.607 147.536 562.942 147.288C563.277 147.042 563.444 146.638 563.444 146.075V144.628H563.354C563.262 144.813 563.126 145.004 562.947 145.2C562.771 145.395 562.537 145.559 562.246 145.692C561.957 145.824 561.594 145.891 561.157 145.891C560.57 145.891 560.038 145.753 559.561 145.478C559.087 145.2 558.709 144.785 558.428 144.235C558.149 143.682 558.01 142.989 558.01 142.157C558.01 141.318 558.149 140.611 558.428 140.034C558.709 139.454 559.089 139.015 559.566 138.717C560.043 138.415 560.575 138.264 561.162 138.264C561.609 138.264 561.977 138.34 562.266 138.493C562.557 138.642 562.789 138.823 562.962 139.035C563.134 139.244 563.265 139.441 563.354 139.626H563.454V138.364H565.229V146.124C565.229 146.777 565.073 147.317 564.761 147.745C564.45 148.173 564.024 148.492 563.484 148.705C562.943 148.917 562.33 149.023 561.644 149.023ZM561.659 144.479C562.04 144.479 562.365 144.386 562.634 144.2C562.902 144.015 563.106 143.748 563.245 143.4C563.384 143.052 563.454 142.634 563.454 142.147C563.454 141.666 563.384 141.246 563.245 140.884C563.109 140.523 562.907 140.243 562.638 140.044C562.373 139.842 562.047 139.741 561.659 139.741C561.258 139.741 560.923 139.845 560.655 140.054C560.386 140.263 560.184 140.549 560.048 140.914C559.912 141.275 559.844 141.686 559.844 142.147C559.844 142.614 559.912 143.024 560.048 143.375C560.188 143.723 560.391 143.995 560.66 144.19C560.932 144.383 561.265 144.479 561.659 144.479ZM568.192 148.864C567.946 148.864 567.719 148.844 567.511 148.804C567.305 148.768 567.141 148.724 567.018 148.675L567.436 147.273C567.698 147.349 567.932 147.385 568.137 147.382C568.343 147.379 568.523 147.314 568.679 147.188C568.838 147.066 568.972 146.86 569.082 146.572L569.236 146.159L566.467 138.364H568.376L570.136 144.131H570.215L571.98 138.364H573.894L570.837 146.925C570.694 147.329 570.505 147.675 570.27 147.964C570.035 148.255 569.746 148.478 569.405 148.63C569.067 148.786 568.662 148.864 568.192 148.864Z" fill="white"/>
<ellipse cx="427.427" cy="68" rx="47.427" ry="47" fill="#5652FD"/>
<path d="M396.233 55V44.8182H399.673C400.469 44.8182 401.122 44.9541 401.632 45.2259C402.143 45.4943 402.52 45.8639 402.766 46.3345C403.011 46.8052 403.134 47.3404 403.134 47.9403C403.134 48.5402 403.011 49.0722 402.766 49.5362C402.52 50.0002 402.144 50.3648 401.637 50.63C401.13 50.8918 400.482 51.0227 399.693 51.0227H396.909V49.9091H399.653C400.197 49.9091 400.634 49.8295 400.966 49.6705C401.301 49.5114 401.543 49.286 401.692 48.9943C401.844 48.6993 401.92 48.348 401.92 47.9403C401.92 47.5327 401.844 47.1764 401.692 46.8714C401.539 46.5665 401.296 46.3312 400.961 46.1655C400.626 45.9964 400.184 45.9119 399.634 45.9119H397.466V55H396.233ZM401.026 50.4261L403.531 55H402.099L399.634 50.4261H401.026ZM408.149 55.1591C407.413 55.1591 406.778 54.9967 406.244 54.6719C405.714 54.3438 405.305 53.8864 405.017 53.2997C404.731 52.7098 404.589 52.0237 404.589 51.2415C404.589 50.4593 404.731 49.7699 405.017 49.1733C405.305 48.5734 405.706 48.1061 406.22 47.7713C406.737 47.4332 407.34 47.2642 408.029 47.2642C408.427 47.2642 408.82 47.3305 409.208 47.4631C409.595 47.5956 409.948 47.8111 410.267 48.1094C410.585 48.4044 410.838 48.7955 411.027 49.2827C411.216 49.7699 411.311 50.3698 411.311 51.0824V51.5795H405.424V50.5653H410.117C410.117 50.1345 410.031 49.75 409.859 49.4119C409.69 49.0739 409.448 48.8071 409.133 48.6115C408.821 48.416 408.454 48.3182 408.029 48.3182C407.562 48.3182 407.158 48.4342 406.816 48.6662C406.478 48.8949 406.218 49.1932 406.036 49.5611C405.853 49.929 405.762 50.3234 405.762 50.7443V51.4205C405.762 51.9972 405.862 52.486 406.061 52.8871C406.263 53.2848 406.543 53.5881 406.901 53.7969C407.259 54.0024 407.675 54.1051 408.149 54.1051C408.457 54.1051 408.735 54.062 408.984 53.9759C409.236 53.8864 409.453 53.7538 409.635 53.5781C409.817 53.3991 409.958 53.1771 410.058 52.9119L411.191 53.2301C411.072 53.6146 410.871 53.9527 410.59 54.2443C410.308 54.5327 409.96 54.758 409.546 54.9205C409.131 55.0795 408.666 55.1591 408.149 55.1591ZM416.416 47.3636V48.358H412.459V47.3636H416.416ZM413.612 45.5341H414.786V52.8125C414.786 53.1439 414.834 53.3925 414.93 53.5582C415.029 53.7206 415.155 53.83 415.308 53.8864C415.463 53.9394 415.628 53.9659 415.8 53.9659C415.929 53.9659 416.035 53.9593 416.118 53.946C416.201 53.9295 416.267 53.9162 416.317 53.9062L416.556 54.9602C416.476 54.9901 416.365 55.0199 416.222 55.0497C416.08 55.0829 415.899 55.0994 415.681 55.0994C415.349 55.0994 415.024 55.0282 414.706 54.8857C414.391 54.7431 414.129 54.526 413.921 54.2344C413.715 53.9427 413.612 53.5748 413.612 53.1307V45.5341ZM420.428 55.179C419.945 55.179 419.505 55.0878 419.111 54.9055C418.717 54.7199 418.403 54.4531 418.171 54.1051C417.939 53.7538 417.823 53.3295 417.823 52.8324C417.823 52.3949 417.91 52.0402 418.082 51.7685C418.254 51.4934 418.485 51.2779 418.773 51.1222C419.061 50.9664 419.379 50.8504 419.727 50.7741C420.079 50.6946 420.432 50.6316 420.786 50.5852C421.25 50.5256 421.627 50.4808 421.915 50.451C422.207 50.4179 422.419 50.3632 422.551 50.2869C422.687 50.2107 422.755 50.0781 422.755 49.8892V49.8494C422.755 49.3589 422.621 48.9777 422.352 48.706C422.087 48.4342 421.685 48.2983 421.144 48.2983C420.584 48.2983 420.145 48.4209 419.827 48.6662C419.509 48.9115 419.285 49.1733 419.156 49.4517L418.042 49.054C418.241 48.59 418.506 48.2287 418.838 47.9702C419.172 47.7083 419.537 47.526 419.931 47.4233C420.329 47.3172 420.72 47.2642 421.105 47.2642C421.35 47.2642 421.632 47.294 421.95 47.3537C422.271 47.41 422.581 47.5277 422.879 47.7067C423.181 47.8857 423.431 48.1558 423.63 48.517C423.829 48.8783 423.928 49.3622 423.928 49.9688V55H422.755V53.9659H422.695C422.616 54.1316 422.483 54.3089 422.298 54.4979C422.112 54.6868 421.865 54.8475 421.557 54.9801C421.249 55.1127 420.873 55.179 420.428 55.179ZM420.607 54.125C421.071 54.125 421.463 54.0339 421.781 53.8516C422.102 53.6693 422.344 53.4339 422.507 53.1456C422.672 52.8572 422.755 52.554 422.755 52.2358V51.1619C422.705 51.2216 422.596 51.2763 422.427 51.326C422.261 51.3724 422.069 51.4138 421.85 51.4503C421.635 51.4834 421.424 51.5133 421.219 51.5398C421.017 51.563 420.853 51.5829 420.727 51.5994C420.422 51.6392 420.137 51.7038 419.872 51.7933C419.61 51.8795 419.398 52.0104 419.235 52.1861C419.076 52.3584 418.997 52.5937 418.997 52.892C418.997 53.2997 419.147 53.608 419.449 53.8168C419.754 54.0223 420.14 54.125 420.607 54.125ZM426.07 55V47.3636H427.243V55H426.07ZM426.667 46.0909C426.438 46.0909 426.241 46.013 426.075 45.8572C425.913 45.7015 425.831 45.5142 425.831 45.2955C425.831 45.0767 425.913 44.8894 426.075 44.7337C426.241 44.5779 426.438 44.5 426.667 44.5C426.895 44.5 427.091 44.5779 427.253 44.7337C427.419 44.8894 427.502 45.0767 427.502 45.2955C427.502 45.5142 427.419 45.7015 427.253 45.8572C427.091 46.013 426.895 46.0909 426.667 46.0909ZM430.566 44.8182V55H429.392V44.8182H430.566ZM435.916 55.1591C435.18 55.1591 434.546 54.9967 434.012 54.6719C433.482 54.3438 433.072 53.8864 432.784 53.2997C432.499 52.7098 432.357 52.0237 432.357 51.2415C432.357 50.4593 432.499 49.7699 432.784 49.1733C433.072 48.5734 433.473 48.1061 433.987 47.7713C434.504 47.4332 435.107 47.2642 435.797 47.2642C436.195 47.2642 436.587 47.3305 436.975 47.4631C437.363 47.5956 437.716 47.8111 438.034 48.1094C438.352 48.4044 438.606 48.7955 438.795 49.2827C438.984 49.7699 439.078 50.3698 439.078 51.0824V51.5795H433.192V50.5653H437.885C437.885 50.1345 437.799 49.75 437.626 49.4119C437.457 49.0739 437.215 48.8071 436.901 48.6115C436.589 48.416 436.221 48.3182 435.797 48.3182C435.33 48.3182 434.925 48.4342 434.584 48.6662C434.246 48.8949 433.986 49.1932 433.803 49.5611C433.621 49.929 433.53 50.3234 433.53 50.7443V51.4205C433.53 51.9972 433.629 52.486 433.828 52.8871C434.03 53.2848 434.31 53.5881 434.668 53.7969C435.026 54.0024 435.442 54.1051 435.916 54.1051C436.224 54.1051 436.503 54.062 436.751 53.9759C437.003 53.8864 437.22 53.7538 437.403 53.5781C437.585 53.3991 437.726 53.1771 437.825 52.9119L438.959 53.2301C438.839 53.6146 438.639 53.9527 438.357 54.2443C438.076 54.5327 437.728 54.758 437.313 54.9205C436.899 55.0795 436.433 55.1591 435.916 55.1591ZM397.804 72L395.477 64.3636H396.71L398.361 70.2102H398.44L400.071 64.3636H401.324L402.935 70.1903H403.014L404.665 64.3636H405.898L403.571 72H402.418L400.747 66.1335H400.628L398.957 72H397.804ZM408.622 67.4062V72H407.449V61.8182H408.622V65.5568H408.722C408.901 65.1624 409.169 64.8492 409.527 64.6172C409.888 64.3819 410.369 64.2642 410.969 64.2642C411.489 64.2642 411.945 64.3686 412.336 64.5774C412.727 64.7829 413.03 65.0994 413.246 65.527C413.464 65.9512 413.574 66.4915 413.574 67.1477V72H412.401V67.2273C412.401 66.6207 412.243 66.1518 411.928 65.8203C411.617 65.4856 411.184 65.3182 410.631 65.3182C410.246 65.3182 409.902 65.3994 409.597 65.5618C409.295 65.7242 409.056 65.9612 408.881 66.2727C408.708 66.5843 408.622 66.9621 408.622 67.4062ZM418.823 72.1591C418.133 72.1591 417.528 71.995 417.008 71.6669C416.491 71.3388 416.087 70.8797 415.795 70.2898C415.507 69.6998 415.362 69.0104 415.362 68.2216C415.362 67.4261 415.507 66.7318 415.795 66.1385C416.087 65.5452 416.491 65.0845 417.008 64.7564C417.528 64.4283 418.133 64.2642 418.823 64.2642C419.512 64.2642 420.115 64.4283 420.632 64.7564C421.153 65.0845 421.557 65.5452 421.845 66.1385C422.137 66.7318 422.283 67.4261 422.283 68.2216C422.283 69.0104 422.137 69.6998 421.845 70.2898C421.557 70.8797 421.153 71.3388 420.632 71.6669C420.115 71.995 419.512 72.1591 418.823 72.1591ZM418.823 71.1051C419.346 71.1051 419.777 70.9709 420.115 70.7024C420.453 70.4339 420.704 70.081 420.866 69.6435C421.028 69.206 421.11 68.732 421.11 68.2216C421.11 67.7112 421.028 67.2356 420.866 66.7947C420.704 66.3539 420.453 65.9976 420.115 65.7259C419.777 65.4541 419.346 65.3182 418.823 65.3182C418.299 65.3182 417.868 65.4541 417.53 65.7259C417.192 65.9976 416.942 66.3539 416.779 66.7947C416.617 67.2356 416.536 67.7112 416.536 68.2216C416.536 68.732 416.617 69.206 416.779 69.6435C416.942 70.081 417.192 70.4339 417.53 70.7024C417.868 70.9709 418.299 71.1051 418.823 71.1051ZM425.247 61.8182V72H424.074V61.8182H425.247ZM430.598 72.1591C429.862 72.1591 429.227 71.9967 428.694 71.6719C428.163 71.3438 427.754 70.8864 427.466 70.2997C427.181 69.7098 427.038 69.0237 427.038 68.2415C427.038 67.4593 427.181 66.7699 427.466 66.1733C427.754 65.5734 428.155 65.1061 428.669 64.7713C429.186 64.4332 429.789 64.2642 430.479 64.2642C430.876 64.2642 431.269 64.3305 431.657 64.4631C432.045 64.5956 432.398 64.8111 432.716 65.1094C433.034 65.4044 433.287 65.7955 433.476 66.2827C433.665 66.7699 433.76 67.3698 433.76 68.0824V68.5795H427.873V67.5653H432.567C432.567 67.1345 432.48 66.75 432.308 66.4119C432.139 66.0739 431.897 65.8071 431.582 65.6115C431.271 65.416 430.903 65.3182 430.479 65.3182C430.011 65.3182 429.607 65.4342 429.265 65.6662C428.927 65.8949 428.667 66.1932 428.485 66.5611C428.303 66.929 428.211 67.3234 428.211 67.7443V68.4205C428.211 68.9972 428.311 69.486 428.51 69.8871C428.712 70.2848 428.992 70.5881 429.35 70.7969C429.708 71.0024 430.124 71.1051 430.598 71.1051C430.906 71.1051 431.184 71.062 431.433 70.9759C431.685 70.8864 431.902 70.7538 432.084 70.5781C432.267 70.3991 432.407 70.1771 432.507 69.9119L433.64 70.2301C433.521 70.6146 433.321 70.9527 433.039 71.2443C432.757 71.5327 432.409 71.758 431.995 71.9205C431.581 72.0795 431.115 72.1591 430.598 72.1591ZM440.954 66.0739L439.9 66.3722C439.833 66.1965 439.736 66.0258 439.606 65.8601C439.48 65.6911 439.308 65.5518 439.089 65.4425C438.871 65.3331 438.59 65.2784 438.249 65.2784C437.782 65.2784 437.392 65.3861 437.081 65.6016C436.773 65.8137 436.618 66.0838 436.618 66.4119C436.618 66.7036 436.724 66.9339 436.937 67.103C437.149 67.272 437.48 67.4129 437.931 67.5256L439.064 67.804C439.747 67.9697 440.256 68.2232 440.591 68.5646C440.925 68.9027 441.093 69.3385 441.093 69.8722C441.093 70.3097 440.967 70.7008 440.715 71.0455C440.466 71.3902 440.118 71.6619 439.671 71.8608C439.224 72.0597 438.703 72.1591 438.11 72.1591C437.331 72.1591 436.686 71.9901 436.176 71.652C435.666 71.3139 435.342 70.8201 435.206 70.1705L436.32 69.892C436.426 70.303 436.627 70.6113 436.922 70.8168C437.22 71.0223 437.609 71.125 438.09 71.125C438.637 71.125 439.071 71.009 439.393 70.777C439.717 70.5417 439.88 70.2599 439.88 69.9318C439.88 69.6667 439.787 69.4446 439.601 69.2656C439.416 69.0833 439.131 68.9474 438.746 68.858L437.474 68.5597C436.774 68.3939 436.26 68.1371 435.932 67.7891C435.608 67.4377 435.445 66.9986 435.445 66.4716C435.445 66.0407 435.566 65.6596 435.808 65.3281C436.053 64.9967 436.386 64.7365 436.807 64.5476C437.232 64.3587 437.712 64.2642 438.249 64.2642C439.005 64.2642 439.598 64.4299 440.029 64.7614C440.463 65.0928 440.771 65.5303 440.954 66.0739ZM445.106 72.179C444.622 72.179 444.183 72.0878 443.789 71.9055C443.394 71.7199 443.081 71.4531 442.849 71.1051C442.617 70.7538 442.501 70.3295 442.501 69.8324C442.501 69.3949 442.587 69.0402 442.76 68.7685C442.932 68.4934 443.162 68.2779 443.451 68.1222C443.739 67.9664 444.057 67.8504 444.405 67.7741C444.757 67.6946 445.109 67.6316 445.464 67.5852C445.928 67.5256 446.304 67.4808 446.593 67.451C446.884 67.4179 447.096 67.3632 447.229 67.2869C447.365 67.2107 447.433 67.0781 447.433 66.8892V66.8494C447.433 66.3589 447.299 65.9777 447.03 65.706C446.765 65.4342 446.362 65.2983 445.822 65.2983C445.262 65.2983 444.823 65.4209 444.505 65.6662C444.186 65.9115 443.963 66.1733 443.833 66.4517L442.72 66.054C442.919 65.59 443.184 65.2287 443.515 64.9702C443.85 64.7083 444.215 64.526 444.609 64.4233C445.007 64.3172 445.398 64.2642 445.782 64.2642C446.028 64.2642 446.309 64.294 446.627 64.3537C446.949 64.41 447.259 64.5277 447.557 64.7067C447.859 64.8857 448.109 65.1558 448.308 65.517C448.507 65.8783 448.606 66.3622 448.606 66.9688V72H447.433V70.9659H447.373C447.294 71.1316 447.161 71.3089 446.975 71.4979C446.79 71.6868 446.543 71.8475 446.235 71.9801C445.926 72.1127 445.55 72.179 445.106 72.179ZM445.285 71.125C445.749 71.125 446.14 71.0339 446.458 70.8516C446.78 70.6693 447.022 70.4339 447.184 70.1456C447.35 69.8572 447.433 69.554 447.433 69.2358V68.1619C447.383 68.2216 447.274 68.2763 447.105 68.326C446.939 68.3724 446.747 68.4138 446.528 68.4503C446.313 68.4834 446.102 68.5133 445.897 68.5398C445.694 68.563 445.53 68.5829 445.404 68.5994C445.1 68.6392 444.815 68.7038 444.549 68.7933C444.288 68.8795 444.075 69.0104 443.913 69.1861C443.754 69.3584 443.674 69.5937 443.674 69.892C443.674 70.2997 443.825 70.608 444.127 70.8168C444.432 71.0223 444.818 71.125 445.285 71.125ZM451.921 61.8182V72H450.748V61.8182H451.921ZM457.272 72.1591C456.536 72.1591 455.901 71.9967 455.368 71.6719C454.837 71.3438 454.428 70.8864 454.14 70.2997C453.855 69.7098 453.712 69.0237 453.712 68.2415C453.712 67.4593 453.855 66.7699 454.14 66.1733C454.428 65.5734 454.829 65.1061 455.343 64.7713C455.86 64.4332 456.463 64.2642 457.152 64.2642C457.55 64.2642 457.943 64.3305 458.331 64.4631C458.718 64.5956 459.071 64.8111 459.39 65.1094C459.708 65.4044 459.961 65.7955 460.15 66.2827C460.339 66.7699 460.434 67.3698 460.434 68.0824V68.5795H454.547V67.5653H459.24C459.24 67.1345 459.154 66.75 458.982 66.4119C458.813 66.0739 458.571 65.8071 458.256 65.6115C457.944 65.416 457.577 65.3182 457.152 65.3182C456.685 65.3182 456.281 65.4342 455.939 65.6662C455.601 65.8949 455.341 66.1932 455.159 66.5611C454.976 66.929 454.885 67.3234 454.885 67.7443V68.4205C454.885 68.9972 454.985 69.486 455.184 69.8871C455.386 70.2848 455.666 70.5881 456.024 70.7969C456.382 71.0024 456.798 71.1051 457.272 71.1051C457.58 71.1051 457.858 71.062 458.107 70.9759C458.359 70.8864 458.576 70.7538 458.758 70.5781C458.94 70.3991 459.081 70.1771 459.181 69.9119L460.314 70.2301C460.195 70.6146 459.994 70.9527 459.713 71.2443C459.431 71.5327 459.083 71.758 458.669 71.9205C458.254 72.0795 457.789 72.1591 457.272 72.1591ZM462.218 72V64.3636H463.352V65.517H463.431C463.571 65.1392 463.823 64.8326 464.187 64.5973C464.552 64.362 464.963 64.2443 465.42 64.2443C465.506 64.2443 465.614 64.246 465.743 64.2493C465.873 64.2526 465.97 64.2576 466.037 64.2642V65.4574C465.997 65.4474 465.906 65.4325 465.763 65.4126C465.624 65.3894 465.476 65.3778 465.321 65.3778C464.949 65.3778 464.618 65.4557 464.326 65.6115C464.038 65.764 463.809 65.9761 463.64 66.2479C463.475 66.5163 463.392 66.8229 463.392 67.1676V72H462.218ZM396.233 89V78.8182H402.378V79.9119H397.466V83.3523H402.06V84.446H397.466V87.9062H402.457V89H396.233ZM406.688 89.179C406.204 89.179 405.765 89.0878 405.371 88.9055C404.976 88.7199 404.663 88.4531 404.431 88.1051C404.199 87.7538 404.083 87.3295 404.083 86.8324C404.083 86.3949 404.169 86.0402 404.342 85.7685C404.514 85.4934 404.744 85.2779 405.033 85.1222C405.321 84.9664 405.639 84.8504 405.987 84.7741C406.339 84.6946 406.692 84.6316 407.046 84.5852C407.51 84.5256 407.886 84.4808 408.175 84.451C408.466 84.4179 408.679 84.3632 408.811 84.2869C408.947 84.2107 409.015 84.0781 409.015 83.8892V83.8494C409.015 83.3589 408.881 82.9777 408.612 82.706C408.347 82.4342 407.944 82.2983 407.404 82.2983C406.844 82.2983 406.405 82.4209 406.087 82.6662C405.768 82.9115 405.545 83.1733 405.415 83.4517L404.302 83.054C404.501 82.59 404.766 82.2287 405.097 81.9702C405.432 81.7083 405.797 81.526 406.191 81.4233C406.589 81.3172 406.98 81.2642 407.364 81.2642C407.61 81.2642 407.891 81.294 408.21 81.3537C408.531 81.41 408.841 81.5277 409.139 81.7067C409.441 81.8857 409.691 82.1558 409.89 82.517C410.089 82.8783 410.188 83.3622 410.188 83.9688V89H409.015V87.9659H408.955C408.876 88.1316 408.743 88.3089 408.558 88.4979C408.372 88.6868 408.125 88.8475 407.817 88.9801C407.509 89.1127 407.132 89.179 406.688 89.179ZM406.867 88.125C407.331 88.125 407.722 88.0339 408.04 87.8516C408.362 87.6693 408.604 87.4339 408.766 87.1456C408.932 86.8572 409.015 86.554 409.015 86.2358V85.1619C408.965 85.2216 408.856 85.2763 408.687 85.326C408.521 85.3724 408.329 85.4138 408.11 85.4503C407.895 85.4834 407.684 85.5133 407.479 85.5398C407.277 85.563 407.112 85.5829 406.987 85.5994C406.682 85.6392 406.397 85.7038 406.131 85.7933C405.87 85.8795 405.657 86.0104 405.495 86.1861C405.336 86.3584 405.256 86.5937 405.256 86.892C405.256 87.2997 405.407 87.608 405.709 87.8168C406.014 88.0223 406.4 88.125 406.867 88.125ZM417.739 83.0739L416.685 83.3722C416.619 83.1965 416.521 83.0258 416.392 82.8601C416.266 82.6911 416.093 82.5518 415.874 82.4425C415.656 82.3331 415.376 82.2784 415.034 82.2784C414.567 82.2784 414.177 82.3861 413.866 82.6016C413.558 82.8137 413.404 83.0838 413.404 83.4119C413.404 83.7036 413.51 83.9339 413.722 84.103C413.934 84.272 414.265 84.4129 414.716 84.5256L415.85 84.804C416.532 84.9697 417.041 85.2232 417.376 85.5646C417.711 85.9027 417.878 86.3385 417.878 86.8722C417.878 87.3097 417.752 87.7008 417.5 88.0455C417.252 88.3902 416.904 88.6619 416.456 88.8608C416.009 89.0597 415.488 89.1591 414.895 89.1591C414.116 89.1591 413.472 88.9901 412.961 88.652C412.451 88.3139 412.128 87.8201 411.992 87.1705L413.105 86.892C413.211 87.303 413.412 87.6113 413.707 87.8168C414.005 88.0223 414.395 88.125 414.875 88.125C415.422 88.125 415.856 88.009 416.178 87.777C416.503 87.5417 416.665 87.2599 416.665 86.9318C416.665 86.6667 416.572 86.4446 416.387 86.2656C416.201 86.0833 415.916 85.9474 415.531 85.858L414.259 85.5597C413.559 85.3939 413.046 85.1371 412.718 84.7891C412.393 84.4377 412.23 83.9986 412.23 83.4716C412.23 83.0407 412.351 82.6596 412.593 82.3281C412.838 81.9967 413.172 81.7365 413.593 81.5476C414.017 81.3587 414.497 81.2642 415.034 81.2642C415.79 81.2642 416.383 81.4299 416.814 81.7614C417.248 82.0928 417.557 82.5303 417.739 83.0739ZM422.846 89.1591C422.11 89.1591 421.475 88.9967 420.942 88.6719C420.411 88.3438 420.002 87.8864 419.714 87.2997C419.429 86.7098 419.286 86.0237 419.286 85.2415C419.286 84.4593 419.429 83.7699 419.714 83.1733C420.002 82.5734 420.403 82.1061 420.917 81.7713C421.434 81.4332 422.037 81.2642 422.727 81.2642C423.124 81.2642 423.517 81.3305 423.905 81.4631C424.293 81.5956 424.646 81.8111 424.964 82.1094C425.282 82.4044 425.536 82.7955 425.724 83.2827C425.913 83.7699 426.008 84.3698 426.008 85.0824V85.5795H420.121V84.5653H424.815C424.815 84.1345 424.728 83.75 424.556 83.4119C424.387 83.0739 424.145 82.8071 423.83 82.6115C423.519 82.416 423.151 82.3182 422.727 82.3182C422.259 82.3182 421.855 82.4342 421.513 82.6662C421.175 82.8949 420.915 83.1932 420.733 83.5611C420.551 83.929 420.46 84.3234 420.46 84.7443V85.4205C420.46 85.9972 420.559 86.486 420.758 86.8871C420.96 87.2848 421.24 87.5881 421.598 87.7969C421.956 88.0024 422.372 88.1051 422.846 88.1051C423.154 88.1051 423.433 88.062 423.681 87.9759C423.933 87.8864 424.15 87.7538 424.332 87.5781C424.515 87.3991 424.656 87.1771 424.755 86.9119L425.888 87.2301C425.769 87.6146 425.569 87.9527 425.287 88.2443C425.005 88.5327 424.657 88.758 424.243 88.9205C423.829 89.0795 423.363 89.1591 422.846 89.1591ZM432.307 89H431.014L434.753 78.8182H436.026L439.764 89H438.472L435.429 80.429H435.349L432.307 89ZM432.784 85.0227H437.994V86.1165H432.784V85.0227ZM441.191 91.8636V81.3636H442.325V82.5767H442.464C442.55 82.4441 442.669 82.2751 442.822 82.0696C442.978 81.8608 443.2 81.6752 443.488 81.5128C443.78 81.3471 444.174 81.2642 444.671 81.2642C445.314 81.2642 445.881 81.425 446.371 81.7464C446.862 82.0679 447.245 82.5237 447.52 83.1136C447.795 83.7036 447.933 84.3996 447.933 85.2017C447.933 86.0104 447.795 86.7114 447.52 87.3047C447.245 87.8946 446.864 88.352 446.376 88.6768C445.889 88.9983 445.327 89.1591 444.691 89.1591C444.201 89.1591 443.808 89.0779 443.513 88.9155C443.218 88.7498 442.991 88.5625 442.832 88.3537C442.673 88.1416 442.55 87.9659 442.464 87.8267H442.364V91.8636H441.191ZM442.344 85.1818C442.344 85.7585 442.429 86.2673 442.598 86.7081C442.767 87.1456 443.014 87.4886 443.339 87.7372C443.664 87.9825 444.061 88.1051 444.532 88.1051C445.022 88.1051 445.432 87.9759 445.76 87.7173C446.091 87.4555 446.34 87.1042 446.506 86.6634C446.675 86.2192 446.759 85.7254 446.759 85.1818C446.759 84.6449 446.676 84.161 446.511 83.7301C446.348 83.2959 446.101 82.9529 445.77 82.701C445.442 82.4458 445.029 82.3182 444.532 82.3182C444.055 82.3182 443.654 82.4392 443.329 82.6811C443.004 82.9197 442.759 83.2545 442.593 83.6854C442.427 84.1129 442.344 84.6117 442.344 85.1818ZM449.722 91.8636V81.3636H450.856V82.5767H450.995C451.081 82.4441 451.201 82.2751 451.353 82.0696C451.509 81.8608 451.731 81.6752 452.019 81.5128C452.311 81.3471 452.705 81.2642 453.202 81.2642C453.845 81.2642 454.412 81.425 454.903 81.7464C455.393 82.0679 455.776 82.5237 456.051 83.1136C456.326 83.7036 456.464 84.3996 456.464 85.2017C456.464 86.0104 456.326 86.7114 456.051 87.3047C455.776 87.8946 455.395 88.352 454.908 88.6768C454.42 88.9983 453.859 89.1591 453.222 89.1591C452.732 89.1591 452.339 89.0779 452.044 88.9155C451.749 88.7498 451.522 88.5625 451.363 88.3537C451.204 88.1416 451.081 87.9659 450.995 87.8267H450.896V91.8636H449.722ZM450.876 85.1818C450.876 85.7585 450.96 86.2673 451.129 86.7081C451.298 87.1456 451.545 87.4886 451.87 87.7372C452.195 87.9825 452.593 88.1051 453.063 88.1051C453.554 88.1051 453.963 87.9759 454.291 87.7173C454.623 87.4555 454.871 87.1042 455.037 86.6634C455.206 86.2192 455.29 85.7254 455.29 85.1818C455.29 84.6449 455.208 84.161 455.042 83.7301C454.879 83.2959 454.633 82.9529 454.301 82.701C453.973 82.4458 453.56 82.3182 453.063 82.3182C452.586 82.3182 452.185 82.4392 451.86 82.6811C451.535 82.9197 451.29 83.2545 451.124 83.6854C450.959 84.1129 450.876 84.6117 450.876 85.1818Z" fill="white"/>
<ellipse cx="286.427" cy="47" rx="47.427" ry="47" fill="#5652FD"/>
<path d="M261.538 33.6172C261.491 33.183 261.296 32.8449 260.951 32.603C260.61 32.361 260.165 32.2401 259.619 32.2401C259.234 32.2401 258.904 32.2981 258.629 32.4141C258.354 32.5301 258.144 32.6875 257.998 32.8864C257.852 33.0852 257.777 33.3123 257.774 33.5675C257.774 33.7796 257.822 33.9635 257.918 34.1193C258.018 34.2751 258.152 34.4077 258.321 34.517C258.49 34.6231 258.677 34.7126 258.883 34.7855C259.088 34.8584 259.295 34.9197 259.504 34.9695L260.459 35.2081C260.843 35.2976 261.213 35.4186 261.567 35.571C261.925 35.7235 262.245 35.9157 262.527 36.1477C262.812 36.3797 263.037 36.6598 263.203 36.9879C263.369 37.3161 263.452 37.7005 263.452 38.1413C263.452 38.7379 263.299 39.2633 262.994 39.7173C262.689 40.1681 262.249 40.5211 261.672 40.7763C261.098 41.0282 260.404 41.1541 259.589 41.1541C258.797 41.1541 258.109 41.0315 257.526 40.7862C256.946 40.541 256.491 40.183 256.163 39.7124C255.839 39.2417 255.663 38.6683 255.636 37.9922H257.451C257.478 38.3468 257.587 38.6418 257.779 38.8771C257.971 39.1125 258.222 39.2881 258.53 39.4041C258.841 39.5201 259.189 39.5781 259.574 39.5781C259.975 39.5781 260.326 39.5185 260.628 39.3991C260.933 39.2765 261.171 39.1075 261.344 38.892C261.516 38.6733 261.604 38.4181 261.607 38.1264C261.604 37.8613 261.526 37.6425 261.374 37.4702C261.221 37.2945 261.007 37.1487 260.732 37.0327C260.46 36.9134 260.142 36.8073 259.778 36.7145L258.619 36.4162C257.781 36.2008 257.118 35.8743 256.631 35.4368C256.147 34.996 255.905 34.411 255.905 33.6818C255.905 33.0819 256.067 32.5566 256.392 32.1058C256.72 31.6551 257.166 31.3054 257.729 31.0568C258.293 30.8049 258.931 30.679 259.643 30.679C260.366 30.679 260.999 30.8049 261.543 31.0568C262.089 31.3054 262.519 31.6518 262.83 32.0959C263.142 32.5367 263.303 33.0438 263.312 33.6172H261.538ZM265.017 41V33.3636H266.737V34.6612H266.826C266.985 34.2237 267.249 33.8823 267.617 33.6371C267.985 33.3885 268.424 33.2642 268.934 33.2642C269.451 33.2642 269.887 33.3902 270.242 33.642C270.6 33.8906 270.852 34.2304 270.997 34.6612H271.077C271.246 34.237 271.531 33.8989 271.932 33.647C272.336 33.3918 272.815 33.2642 273.369 33.2642C274.071 33.2642 274.645 33.4863 275.089 33.9304C275.533 34.3745 275.755 35.0225 275.755 35.8743V41H273.95V36.1527C273.95 35.6787 273.825 35.3324 273.573 35.1136C273.321 34.8916 273.012 34.7805 272.648 34.7805C272.214 34.7805 271.874 34.9164 271.629 35.1882C271.387 35.4567 271.266 35.8063 271.266 36.2372V41H269.501V36.0781C269.501 35.6837 269.382 35.3688 269.143 35.1335C268.908 34.8982 268.599 34.7805 268.218 34.7805C267.96 34.7805 267.724 34.8468 267.512 34.9794C267.3 35.1087 267.131 35.2926 267.005 35.5312C266.879 35.7666 266.816 36.0417 266.816 36.3565V41H265.017ZM279.778 41.1541C279.295 41.1541 278.859 41.0679 278.471 40.8956C278.086 40.7199 277.781 40.4614 277.556 40.12C277.334 39.7786 277.223 39.3577 277.223 38.8572C277.223 38.4264 277.303 38.0701 277.462 37.7884C277.621 37.5066 277.838 37.2812 278.113 37.1122C278.388 36.9432 278.698 36.8156 279.043 36.7294C279.391 36.6399 279.75 36.5753 280.121 36.5355C280.569 36.4891 280.932 36.4477 281.21 36.4112C281.489 36.3714 281.691 36.3118 281.817 36.2322C281.946 36.1494 282.011 36.0218 282.011 35.8494V35.8196C282.011 35.4451 281.9 35.1551 281.678 34.9496C281.455 34.7441 281.136 34.6413 280.718 34.6413C280.277 34.6413 279.928 34.7375 279.669 34.9297C279.414 35.1219 279.241 35.349 279.152 35.6108L277.472 35.3722C277.604 34.9081 277.823 34.5204 278.128 34.2088C278.433 33.8939 278.806 33.6586 279.246 33.5028C279.687 33.3438 280.174 33.2642 280.708 33.2642C281.076 33.2642 281.442 33.3073 281.807 33.3935C282.171 33.4796 282.504 33.6222 282.806 33.821C283.108 34.0166 283.35 34.2834 283.532 34.6214C283.718 34.9595 283.81 35.3821 283.81 35.8892V41H282.08V39.951H282.021C281.911 40.1631 281.757 40.362 281.558 40.5476C281.363 40.7299 281.116 40.8774 280.817 40.9901C280.522 41.0994 280.176 41.1541 279.778 41.1541ZM280.246 39.8317C280.607 39.8317 280.92 39.7604 281.185 39.6179C281.451 39.4721 281.654 39.2798 281.797 39.0412C281.943 38.8026 282.016 38.5424 282.016 38.2607V37.3608C281.959 37.4072 281.863 37.4503 281.727 37.4901C281.595 37.5298 281.446 37.5646 281.28 37.5945C281.114 37.6243 280.95 37.6508 280.788 37.674C280.625 37.6972 280.484 37.7171 280.365 37.7337C280.097 37.7701 279.856 37.8298 279.644 37.9126C279.432 37.9955 279.265 38.1115 279.142 38.2607C279.019 38.4065 278.958 38.5954 278.958 38.8274C278.958 39.1589 279.079 39.4091 279.321 39.5781C279.563 39.7472 279.871 39.8317 280.246 39.8317ZM285.62 41V33.3636H287.365V34.6364H287.445C287.584 34.1955 287.822 33.8558 288.161 33.6172C288.502 33.3752 288.891 33.2543 289.329 33.2543C289.428 33.2543 289.539 33.2592 289.662 33.2692C289.788 33.2758 289.892 33.2874 289.975 33.304V34.9595C289.899 34.933 289.778 34.9098 289.612 34.8899C289.45 34.8667 289.292 34.8551 289.14 34.8551C288.812 34.8551 288.517 34.9264 288.255 35.0689C287.996 35.2081 287.793 35.402 287.643 35.6506C287.494 35.8991 287.42 36.1858 287.42 36.5107V41H285.62ZM295.394 33.3636V34.7557H291.004V33.3636H295.394ZM292.088 31.5341H293.888V38.7031C293.888 38.9451 293.924 39.1307 293.997 39.2599C294.073 39.3859 294.173 39.4721 294.295 39.5185C294.418 39.5649 294.554 39.5881 294.703 39.5881C294.816 39.5881 294.919 39.5798 295.011 39.5632C295.107 39.5466 295.18 39.5317 295.23 39.5185L295.533 40.9254C295.437 40.9586 295.3 40.995 295.121 41.0348C294.945 41.0746 294.73 41.0978 294.474 41.1044C294.024 41.1177 293.618 41.0497 293.256 40.9006C292.895 40.7481 292.608 40.5128 292.396 40.1946C292.188 39.8764 292.085 39.4787 292.088 39.0014V31.5341ZM257.849 47.8182V58H256.004V47.8182H257.849ZM261.566 53.5256V58H259.767V50.3636H261.487V51.6612H261.576C261.752 51.2337 262.032 50.8939 262.416 50.642C262.804 50.3902 263.283 50.2642 263.853 50.2642C264.38 50.2642 264.839 50.3769 265.23 50.6023C265.625 50.8277 265.93 51.1541 266.145 51.5817C266.364 52.0092 266.472 52.5279 266.468 53.1378V58H264.669V53.4162C264.669 52.9058 264.536 52.5064 264.271 52.218C264.009 51.9297 263.646 51.7855 263.182 51.7855C262.867 51.7855 262.587 51.8551 262.342 51.9943C262.1 52.1302 261.909 52.3274 261.77 52.5859C261.634 52.8445 261.566 53.1577 261.566 53.5256ZM274.845 50.3636L272.126 58H270.137L267.418 50.3636H269.337L271.092 56.0362H271.171L272.931 50.3636H274.845ZM279.212 58.1491C278.446 58.1491 277.785 57.9901 277.228 57.6719C276.674 57.3504 276.249 56.8963 275.95 56.3097C275.652 55.7197 275.503 55.0253 275.503 54.2266C275.503 53.4411 275.652 52.7517 275.95 52.1584C276.252 51.5618 276.673 51.0978 277.213 50.7663C277.753 50.4316 278.388 50.2642 279.117 50.2642C279.588 50.2642 280.032 50.3404 280.45 50.4929C280.871 50.642 281.242 50.8741 281.563 51.1889C281.888 51.5038 282.143 51.9048 282.329 52.392C282.514 52.8759 282.607 53.4527 282.607 54.1222V54.674H276.348V53.4609H280.882C280.879 53.1162 280.804 52.8097 280.658 52.5412C280.513 52.2694 280.309 52.0556 280.047 51.8999C279.788 51.7441 279.487 51.6662 279.142 51.6662C278.774 51.6662 278.451 51.7557 278.173 51.9347C277.894 52.1103 277.677 52.3423 277.521 52.6307C277.369 52.9157 277.291 53.2289 277.288 53.5703V54.6293C277.288 55.0734 277.369 55.4545 277.531 55.7727C277.694 56.0876 277.921 56.3295 278.212 56.4986C278.504 56.6643 278.845 56.7472 279.237 56.7472C279.498 56.7472 279.735 56.7107 279.947 56.6378C280.16 56.5616 280.344 56.4505 280.499 56.3047C280.655 56.1589 280.773 55.9782 280.852 55.7628L282.533 55.9517C282.427 56.3958 282.224 56.7836 281.926 57.1151C281.631 57.4432 281.253 57.6984 280.793 57.8807C280.332 58.0597 279.805 58.1491 279.212 58.1491ZM285.93 53.5256V58H284.13V50.3636H285.85V51.6612H285.939C286.115 51.2337 286.395 50.8939 286.78 50.642C287.167 50.3902 287.646 50.2642 288.216 50.2642C288.743 50.2642 289.202 50.3769 289.594 50.6023C289.988 50.8277 290.293 51.1541 290.508 51.5817C290.727 52.0092 290.835 52.5279 290.831 53.1378V58H289.032V53.4162C289.032 52.9058 288.899 52.5064 288.634 52.218C288.372 51.9297 288.009 51.7855 287.545 51.7855C287.23 51.7855 286.95 51.8551 286.705 51.9943C286.463 52.1302 286.273 52.3274 286.133 52.5859C285.997 52.8445 285.93 53.1577 285.93 53.5256ZM296.474 50.3636V51.7557H292.084V50.3636H296.474ZM293.168 48.5341H294.968V55.7031C294.968 55.9451 295.004 56.1307 295.077 56.2599C295.153 56.3859 295.253 56.4721 295.376 56.5185C295.498 56.5649 295.634 56.5881 295.783 56.5881C295.896 56.5881 295.999 56.5798 296.091 56.5632C296.188 56.5466 296.26 56.5317 296.31 56.5185L296.613 57.9254C296.517 57.9586 296.38 57.995 296.201 58.0348C296.025 58.0746 295.81 58.0978 295.555 58.1044C295.104 58.1177 294.698 58.0497 294.336 57.9006C293.975 57.7481 293.689 57.5128 293.476 57.1946C293.268 56.8764 293.165 56.4787 293.168 56.0014V48.5341ZM301.228 58.1491C300.483 58.1491 299.836 57.9851 299.289 57.657C298.743 57.3288 298.318 56.8698 298.017 56.2798C297.718 55.6899 297.569 55.0005 297.569 54.2116C297.569 53.4228 297.718 52.7318 298.017 52.1385C298.318 51.5452 298.743 51.0845 299.289 50.7564C299.836 50.4283 300.483 50.2642 301.228 50.2642C301.974 50.2642 302.62 50.4283 303.167 50.7564C303.714 51.0845 304.137 51.5452 304.435 52.1385C304.737 52.7318 304.887 53.4228 304.887 54.2116C304.887 55.0005 304.737 55.6899 304.435 56.2798C304.137 56.8698 303.714 57.3288 303.167 57.657C302.62 57.9851 301.974 58.1491 301.228 58.1491ZM301.238 56.7074C301.643 56.7074 301.981 56.5964 302.252 56.3743C302.524 56.1489 302.726 55.8473 302.859 55.4695C302.995 55.0916 303.063 54.6707 303.063 54.2067C303.063 53.7393 302.995 53.3168 302.859 52.9389C302.726 52.5578 302.524 52.2545 302.252 52.0291C301.981 51.8037 301.643 51.6911 301.238 51.6911C300.824 51.6911 300.479 51.8037 300.204 52.0291C299.932 52.2545 299.729 52.5578 299.593 52.9389C299.46 53.3168 299.394 53.7393 299.394 54.2067C299.394 54.6707 299.46 55.0916 299.593 55.4695C299.729 55.8473 299.932 56.1489 300.204 56.3743C300.479 56.5964 300.824 56.7074 301.238 56.7074ZM306.415 58V50.3636H308.16V51.6364H308.24C308.379 51.1955 308.617 50.8558 308.955 50.6172C309.297 50.3752 309.686 50.2543 310.124 50.2543C310.223 50.2543 310.334 50.2592 310.457 50.2692C310.583 50.2758 310.687 50.2874 310.77 50.304V51.9595C310.694 51.933 310.573 51.9098 310.407 51.8899C310.245 51.8667 310.087 51.8551 309.935 51.8551C309.607 51.8551 309.312 51.9264 309.05 52.0689C308.791 52.2081 308.588 52.402 308.438 52.6506C308.289 52.8991 308.215 53.1858 308.215 53.5107V58H306.415ZM313.317 60.8636C313.071 60.8636 312.844 60.8438 312.636 60.804C312.43 60.7675 312.266 60.7244 312.143 60.6747L312.561 59.2727C312.823 59.349 313.057 59.3854 313.262 59.3821C313.468 59.3788 313.648 59.3142 313.804 59.1882C313.963 59.0656 314.097 58.8601 314.207 58.5717L314.361 58.1591L311.592 50.3636H313.501L315.261 56.1307H315.34L317.105 50.3636H319.019L315.962 58.9247C315.819 59.3291 315.63 59.6754 315.395 59.9638C315.16 60.2554 314.871 60.4775 314.53 60.63C314.192 60.7857 313.787 60.8636 313.317 60.8636Z" fill="white"/>
<ellipse cx="165.427" cy="58" rx="47.427" ry="47" fill="#5652FD"/>
<path d="M138.004 55V44.8182H141.902C142.638 44.8182 143.249 44.9342 143.737 45.1662C144.227 45.3949 144.593 45.7081 144.835 46.1058C145.08 46.5036 145.203 46.9543 145.203 47.4581C145.203 47.8724 145.124 48.227 144.964 48.522C144.805 48.8137 144.592 49.0507 144.323 49.233C144.055 49.4152 143.755 49.5462 143.423 49.6257V49.7251C143.785 49.745 144.131 49.8561 144.462 50.0582C144.797 50.2571 145.071 50.5388 145.283 50.9034C145.495 51.268 145.601 51.7088 145.601 52.2259C145.601 52.7528 145.473 53.2268 145.218 53.6477C144.963 54.0653 144.578 54.3951 144.065 54.6371C143.551 54.879 142.905 55 142.126 55H138.004ZM139.849 53.4588H141.832C142.502 53.4588 142.984 53.3312 143.279 53.076C143.577 52.8175 143.727 52.486 143.727 52.0817C143.727 51.7801 143.652 51.5083 143.503 51.2663C143.354 51.0211 143.142 50.8288 142.866 50.6896C142.591 50.5471 142.263 50.4759 141.882 50.4759H139.849V53.4588ZM139.849 49.1484H141.673C141.991 49.1484 142.278 49.0904 142.533 48.9744C142.789 48.8551 142.989 48.6877 143.135 48.4723C143.284 48.2536 143.359 47.995 143.359 47.6967C143.359 47.3023 143.219 46.9775 142.941 46.7223C142.666 46.4671 142.257 46.3395 141.713 46.3395H139.849V49.1484ZM150.507 55.1491C149.741 55.1491 149.08 54.9901 148.523 54.6719C147.969 54.3504 147.544 53.8963 147.245 53.3097C146.947 52.7197 146.798 52.0253 146.798 51.2266C146.798 50.4411 146.947 49.7517 147.245 49.1584C147.547 48.5618 147.968 48.0978 148.508 47.7663C149.048 47.4316 149.683 47.2642 150.412 47.2642C150.883 47.2642 151.327 47.3404 151.744 47.4929C152.165 47.642 152.537 47.8741 152.858 48.1889C153.183 48.5038 153.438 48.9048 153.624 49.392C153.809 49.8759 153.902 50.4527 153.902 51.1222V51.674H147.643V50.4609H152.177C152.174 50.1162 152.099 49.8097 151.953 49.5412C151.807 49.2694 151.604 49.0556 151.342 48.8999C151.083 48.7441 150.782 48.6662 150.437 48.6662C150.069 48.6662 149.746 48.7557 149.468 48.9347C149.189 49.1103 148.972 49.3423 148.816 49.6307C148.664 49.9157 148.586 50.2289 148.583 50.5703V51.6293C148.583 52.0734 148.664 52.4545 148.826 52.7727C148.989 53.0876 149.216 53.3295 149.507 53.4986C149.799 53.6643 150.14 53.7472 150.531 53.7472C150.793 53.7472 151.03 53.7107 151.242 53.6378C151.454 53.5616 151.638 53.4505 151.794 53.3047C151.95 53.1589 152.068 52.9782 152.147 52.7628L153.828 52.9517C153.722 53.3958 153.519 53.7836 153.221 54.1151C152.926 54.4432 152.548 54.6984 152.088 54.8807C151.627 55.0597 151.1 55.1491 150.507 55.1491ZM161.46 49.3821L159.82 49.5611C159.773 49.3954 159.692 49.2396 159.576 49.0938C159.463 48.9479 159.311 48.8303 159.119 48.7408C158.926 48.6513 158.691 48.6065 158.413 48.6065C158.038 48.6065 157.723 48.6877 157.468 48.8501C157.216 49.0125 157.092 49.223 157.095 49.4815C157.092 49.7036 157.173 49.8842 157.339 50.0234C157.508 50.1626 157.786 50.277 158.174 50.3665L159.477 50.6449C160.199 50.8007 160.736 51.0476 161.087 51.3857C161.442 51.7237 161.621 52.1662 161.624 52.7131C161.621 53.1937 161.48 53.6179 161.202 53.9858C160.927 54.3504 160.544 54.6354 160.053 54.8409C159.563 55.0464 158.999 55.1491 158.363 55.1491C157.428 55.1491 156.676 54.9536 156.106 54.5625C155.536 54.1681 155.196 53.6196 155.087 52.9169L156.842 52.7479C156.921 53.0926 157.09 53.3527 157.349 53.5284C157.607 53.7041 157.944 53.7919 158.358 53.7919C158.786 53.7919 159.129 53.7041 159.387 53.5284C159.649 53.3527 159.78 53.1357 159.78 52.8771C159.78 52.6584 159.695 52.4777 159.526 52.3352C159.361 52.1927 159.102 52.0833 158.751 52.0071L157.448 51.7337C156.716 51.5812 156.174 51.3243 155.822 50.9631C155.471 50.5985 155.297 50.1378 155.3 49.581C155.297 49.1103 155.425 48.7027 155.683 48.358C155.945 48.0099 156.308 47.7415 156.772 47.5526C157.239 47.3603 157.778 47.2642 158.388 47.2642C159.283 47.2642 159.987 47.4548 160.501 47.8359C161.018 48.2171 161.338 48.7325 161.46 49.3821ZM166.922 47.3636V48.7557H162.532V47.3636H166.922ZM163.615 45.5341H165.415V52.7031C165.415 52.9451 165.452 53.1307 165.525 53.2599C165.601 53.3859 165.7 53.4721 165.823 53.5185C165.945 53.5649 166.081 53.5881 166.23 53.5881C166.343 53.5881 166.446 53.5798 166.539 53.5632C166.635 53.5466 166.708 53.5317 166.757 53.5185L167.061 54.9254C166.965 54.9586 166.827 54.995 166.648 55.0348C166.472 55.0746 166.257 55.0978 166.002 55.1044C165.551 55.1177 165.145 55.0497 164.784 54.9006C164.422 54.7481 164.136 54.5128 163.924 54.1946C163.715 53.8764 163.612 53.4787 163.615 53.0014V45.5341ZM178.397 44.8182H180.242V51.4702C180.242 52.1993 180.069 52.8407 179.725 53.3942C179.383 53.9477 178.903 54.3802 178.283 54.6918C177.663 55 176.939 55.1541 176.11 55.1541C175.278 55.1541 174.552 55 173.933 54.6918C173.313 54.3802 172.832 53.9477 172.491 53.3942C172.15 52.8407 171.979 52.1993 171.979 51.4702V44.8182H173.823V51.3161C173.823 51.7403 173.916 52.1181 174.102 52.4496C174.291 52.781 174.556 53.0412 174.897 53.2301C175.239 53.4157 175.643 53.5085 176.11 53.5085C176.578 53.5085 176.982 53.4157 177.323 53.2301C177.668 53.0412 177.933 52.781 178.119 52.4496C178.304 52.1181 178.397 51.7403 178.397 51.3161V44.8182ZM184.091 44.8182V55H182.246V44.8182H184.091ZM140.759 72.1342C140.159 72.1342 139.622 71.9801 139.148 71.6719C138.674 71.3636 138.299 70.9162 138.024 70.3295C137.749 69.7429 137.612 69.0303 137.612 68.1918C137.612 67.3433 137.751 66.6274 138.029 66.044C138.311 65.4574 138.69 65.0149 139.168 64.7166C139.645 64.415 140.177 64.2642 140.763 64.2642C141.211 64.2642 141.579 64.3404 141.867 64.4929C142.156 64.642 142.384 64.8227 142.553 65.0348C142.722 65.2436 142.853 65.4408 142.946 65.6264H143.021V61.8182H144.825V72H143.055V70.7969H142.946C142.853 70.9825 142.719 71.1797 142.543 71.3885C142.368 71.594 142.136 71.7696 141.847 71.9155C141.559 72.0613 141.196 72.1342 140.759 72.1342ZM141.261 70.6577C141.642 70.6577 141.967 70.5549 142.235 70.3494C142.504 70.1406 142.707 69.8506 142.847 69.4794C142.986 69.1082 143.055 68.6757 143.055 68.1818C143.055 67.688 142.986 67.2588 142.847 66.8942C142.711 66.5296 142.509 66.2462 142.24 66.044C141.975 65.8419 141.648 65.7408 141.261 65.7408C140.86 65.7408 140.525 65.8452 140.256 66.054C139.988 66.2628 139.786 66.5511 139.65 66.919C139.514 67.2869 139.446 67.7079 139.446 68.1818C139.446 68.6591 139.514 69.085 139.65 69.4595C139.789 69.8307 139.993 70.1241 140.261 70.3395C140.533 70.5516 140.866 70.6577 141.261 70.6577ZM150.124 72.1491C149.358 72.1491 148.697 71.9901 148.14 71.6719C147.587 71.3504 147.161 70.8963 146.862 70.3097C146.564 69.7197 146.415 69.0253 146.415 68.2266C146.415 67.4411 146.564 66.7517 146.862 66.1584C147.164 65.5618 147.585 65.0978 148.125 64.7663C148.665 64.4316 149.3 64.2642 150.029 64.2642C150.5 64.2642 150.944 64.3404 151.362 64.4929C151.783 64.642 152.154 64.8741 152.475 65.1889C152.8 65.5038 153.055 65.9048 153.241 66.392C153.427 66.8759 153.519 67.4527 153.519 68.1222V68.674H147.26V67.4609H151.794C151.791 67.1162 151.716 66.8097 151.57 66.5412C151.425 66.2694 151.221 66.0556 150.959 65.8999C150.7 65.7441 150.399 65.6662 150.054 65.6662C149.686 65.6662 149.363 65.7557 149.085 65.9347C148.806 66.1103 148.589 66.3423 148.433 66.6307C148.281 66.9157 148.203 67.2289 148.2 67.5703V68.6293C148.2 69.0734 148.281 69.4545 148.443 69.7727C148.606 70.0876 148.833 70.3295 149.124 70.4986C149.416 70.6643 149.758 70.7472 150.149 70.7472C150.41 70.7472 150.647 70.7107 150.86 70.6378C151.072 70.5616 151.256 70.4505 151.411 70.3047C151.567 70.1589 151.685 69.9782 151.764 69.7628L153.445 69.9517C153.339 70.3958 153.137 70.7836 152.838 71.1151C152.543 71.4432 152.165 71.6984 151.705 71.8807C151.244 72.0597 150.717 72.1491 150.124 72.1491ZM161.077 66.3821L159.437 66.5611C159.39 66.3954 159.309 66.2396 159.193 66.0938C159.08 65.9479 158.928 65.8303 158.736 65.7408C158.544 65.6513 158.308 65.6065 158.03 65.6065C157.655 65.6065 157.34 65.6877 157.085 65.8501C156.833 66.0125 156.709 66.223 156.712 66.4815C156.709 66.7036 156.79 66.8842 156.956 67.0234C157.125 67.1626 157.403 67.277 157.791 67.3665L159.094 67.6449C159.816 67.8007 160.353 68.0476 160.705 68.3857C161.059 68.7237 161.238 69.1662 161.241 69.7131C161.238 70.1937 161.097 70.6179 160.819 70.9858C160.544 71.3504 160.161 71.6354 159.67 71.8409C159.18 72.0464 158.616 72.1491 157.98 72.1491C157.045 72.1491 156.293 71.9536 155.723 71.5625C155.153 71.1681 154.813 70.6196 154.704 69.9169L156.459 69.7479C156.538 70.0926 156.707 70.3527 156.966 70.5284C157.224 70.7041 157.561 70.7919 157.975 70.7919C158.403 70.7919 158.746 70.7041 159.004 70.5284C159.266 70.3527 159.397 70.1357 159.397 69.8771C159.397 69.6584 159.313 69.4777 159.143 69.3352C158.978 69.1927 158.719 69.0833 158.368 69.0071L157.065 68.7337C156.333 68.5812 155.791 68.3243 155.44 67.9631C155.088 67.5985 154.914 67.1378 154.918 66.581C154.914 66.1103 155.042 65.7027 155.3 65.358C155.562 65.0099 155.925 64.7415 156.389 64.5526C156.857 64.3603 157.395 64.2642 158.005 64.2642C158.9 64.2642 159.604 64.4548 160.118 64.8359C160.635 65.2171 160.955 65.7325 161.077 66.3821ZM162.725 72V64.3636H164.525V72H162.725ZM163.63 63.2798C163.345 63.2798 163.1 63.1854 162.895 62.9964C162.689 62.8042 162.586 62.5739 162.586 62.3054C162.586 62.0336 162.689 61.8033 162.895 61.6143C163.1 61.4221 163.345 61.326 163.63 61.326C163.919 61.326 164.164 61.4221 164.366 61.6143C164.572 61.8033 164.674 62.0336 164.674 62.3054C164.674 62.5739 164.572 62.8042 164.366 62.9964C164.164 63.1854 163.919 63.2798 163.63 63.2798ZM169.697 75.0227C169.051 75.0227 168.495 74.9349 168.031 74.7592C167.567 74.5869 167.195 74.3549 166.913 74.0632C166.631 73.7715 166.436 73.4484 166.326 73.0938L167.947 72.701C168.02 72.8501 168.126 72.9976 168.265 73.1435C168.404 73.2926 168.592 73.4152 168.827 73.5114C169.066 73.6108 169.365 73.6605 169.727 73.6605C170.237 73.6605 170.66 73.5362 170.994 73.2876C171.329 73.0424 171.497 72.638 171.497 72.0746V70.6278H171.407C171.314 70.8134 171.178 71.004 170.999 71.1996C170.824 71.3951 170.59 71.5592 170.298 71.6918C170.01 71.8243 169.647 71.8906 169.21 71.8906C168.623 71.8906 168.091 71.7531 167.614 71.478C167.14 71.1996 166.762 70.7853 166.48 70.2351C166.202 69.6816 166.063 68.9889 166.063 68.157C166.063 67.3184 166.202 66.6108 166.48 66.0341C166.762 65.4541 167.142 65.0149 167.619 64.7166C168.096 64.415 168.628 64.2642 169.215 64.2642C169.662 64.2642 170.03 64.3404 170.318 64.4929C170.61 64.642 170.842 64.8227 171.014 65.0348C171.187 65.2436 171.318 65.4408 171.407 65.6264H171.507V64.3636H173.281V72.1243C173.281 72.7772 173.126 73.3175 172.814 73.745C172.503 74.1726 172.077 74.4924 171.536 74.7045C170.996 74.9167 170.383 75.0227 169.697 75.0227ZM169.712 70.4787C170.093 70.4787 170.418 70.3859 170.686 70.2003C170.955 70.0147 171.159 69.7479 171.298 69.3999C171.437 69.0518 171.507 68.6342 171.507 68.147C171.507 67.6664 171.437 67.2455 171.298 66.8842C171.162 66.523 170.96 66.2429 170.691 66.044C170.426 65.8419 170.1 65.7408 169.712 65.7408C169.311 65.7408 168.976 65.8452 168.708 66.054C168.439 66.2628 168.237 66.5495 168.101 66.9141C167.965 67.2753 167.897 67.6863 167.897 68.147C167.897 68.6143 167.965 69.0237 168.101 69.375C168.24 69.723 168.444 69.9948 168.713 70.1903C168.984 70.3826 169.317 70.4787 169.712 70.4787ZM176.926 67.5256V72H175.126V64.3636H176.846V65.6612H176.936C177.111 65.2337 177.391 64.8939 177.776 64.642C178.164 64.3902 178.642 64.2642 179.213 64.2642C179.74 64.2642 180.199 64.3769 180.59 64.6023C180.984 64.8277 181.289 65.1541 181.504 65.5817C181.723 66.0092 181.831 66.5279 181.828 67.1378V72H180.028V67.4162C180.028 66.9058 179.895 66.5064 179.63 66.218C179.368 65.9297 179.005 65.7855 178.541 65.7855C178.227 65.7855 177.946 65.8551 177.701 65.9943C177.459 66.1302 177.269 66.3274 177.129 66.5859C176.994 66.8445 176.926 67.1577 176.926 67.5256Z" fill="white"/>
<ellipse cx="47.427" cy="152" rx="47.427" ry="47" fill="#5652FD"/>
<path d="M17.6974 144L15.2344 135.273H16.9347L18.5071 141.686H18.5881L20.267 135.273H21.8139L23.4972 141.69H23.5739L25.1463 135.273H26.8466L24.3835 144H22.8239L21.0767 137.876H21.0085L19.2571 144H17.6974ZM30.1044 144.128C29.4482 144.128 28.8814 143.991 28.4041 143.719C27.9297 143.443 27.5646 143.054 27.3089 142.551C27.0533 142.045 26.9254 141.45 26.9254 140.766C26.9254 140.092 27.0533 139.501 27.3089 138.993C27.5675 138.482 27.9283 138.084 28.3913 137.8C28.8544 137.513 29.3984 137.369 30.0234 137.369C30.4268 137.369 30.8075 137.435 31.1655 137.565C31.5263 137.693 31.8445 137.892 32.12 138.162C32.3984 138.432 32.6172 138.776 32.7763 139.193C32.9354 139.608 33.0149 140.102 33.0149 140.676V141.149H27.6499V140.109H31.5362C31.5334 139.814 31.4695 139.551 31.3445 139.321C31.2195 139.088 31.0447 138.905 30.8203 138.771C30.5987 138.638 30.3402 138.571 30.0447 138.571C29.7294 138.571 29.4524 138.648 29.2138 138.801C28.9751 138.952 28.7891 139.151 28.6555 139.398C28.5249 139.642 28.4581 139.911 28.4553 140.203V141.111C28.4553 141.491 28.5249 141.818 28.6641 142.091C28.8033 142.361 28.9979 142.568 29.2479 142.713C29.4979 142.855 29.7905 142.926 30.1257 142.926C30.3501 142.926 30.5533 142.895 30.7351 142.832C30.9169 142.767 31.0746 142.672 31.2081 142.547C31.3416 142.422 31.4425 142.267 31.5107 142.082L32.951 142.244C32.8601 142.625 32.6868 142.957 32.4311 143.241C32.1783 143.523 31.8544 143.741 31.4595 143.898C31.0646 144.051 30.6129 144.128 30.1044 144.128ZM37.3647 135.273H39.2994L41.8903 141.597H41.9925L44.5835 135.273H46.5181V144H45.0011V138.004H44.9201L42.5082 143.974H41.3746L38.9627 137.991H38.8817V144H37.3647V135.273ZM50.055 144.132C49.6403 144.132 49.2667 144.058 48.9343 143.911C48.6048 143.76 48.3434 143.538 48.1502 143.246C47.9599 142.953 47.8647 142.592 47.8647 142.163C47.8647 141.794 47.9329 141.489 48.0692 141.247C48.2056 141.006 48.3917 140.812 48.6275 140.668C48.8633 140.523 49.1289 140.413 49.4244 140.339C49.7227 140.263 50.0309 140.207 50.3491 140.173C50.7326 140.134 51.0437 140.098 51.2823 140.067C51.521 140.033 51.6942 139.982 51.8022 139.913C51.913 139.842 51.9684 139.733 51.9684 139.585V139.56C51.9684 139.239 51.8732 138.99 51.6829 138.814C51.4925 138.638 51.2184 138.55 50.8604 138.55C50.4826 138.55 50.1829 138.632 49.9613 138.797C49.7425 138.962 49.5948 139.156 49.5181 139.381L48.0778 139.176C48.1914 138.778 48.3789 138.446 48.6403 138.179C48.9016 137.909 49.2212 137.707 49.5991 137.574C49.9769 137.438 50.3945 137.369 50.8519 137.369C51.1673 137.369 51.4812 137.406 51.7937 137.48C52.1062 137.554 52.3917 137.676 52.6502 137.847C52.9087 138.014 53.1161 138.243 53.2724 138.533C53.4315 138.822 53.511 139.185 53.511 139.619V144H52.0281V143.101H51.9769C51.8832 143.283 51.7511 143.453 51.5806 143.612C51.413 143.768 51.2013 143.895 50.9457 143.991C50.6928 144.085 50.396 144.132 50.055 144.132ZM50.4556 142.999C50.7653 142.999 51.0337 142.937 51.261 142.815C51.4883 142.69 51.663 142.526 51.7852 142.321C51.9102 142.116 51.9727 141.893 51.9727 141.652V140.881C51.9244 140.92 51.842 140.957 51.7255 140.991C51.6119 141.026 51.484 141.055 51.342 141.081C51.1999 141.107 51.0593 141.129 50.9201 141.149C50.7809 141.169 50.6602 141.186 50.5579 141.2C50.3278 141.232 50.1218 141.283 49.94 141.354C49.7582 141.425 49.6147 141.524 49.5096 141.652C49.4045 141.777 49.3519 141.939 49.3519 142.138C49.3519 142.422 49.4556 142.636 49.663 142.781C49.8704 142.926 50.1346 142.999 50.4556 142.999ZM56.6048 140.165V144H55.0621V137.455H56.5366V138.567H56.6133C56.7638 138.2 57.0039 137.909 57.3335 137.693C57.6658 137.477 58.0763 137.369 58.565 137.369C59.0167 137.369 59.4102 137.466 59.7454 137.659C60.0835 137.852 60.3448 138.132 60.5295 138.499C60.717 138.865 60.8093 139.31 60.8065 139.832V144H59.2638V140.071C59.2638 139.634 59.1502 139.291 58.9229 139.044C58.6985 138.797 58.3874 138.673 57.9897 138.673C57.7198 138.673 57.4798 138.733 57.2695 138.852C57.0621 138.969 56.8988 139.138 56.7795 139.359C56.663 139.581 56.6048 139.849 56.6048 140.165ZM64.2582 144.132C63.8434 144.132 63.4698 144.058 63.1374 143.911C62.8079 143.76 62.5465 143.538 62.3533 143.246C62.163 142.953 62.0678 142.592 62.0678 142.163C62.0678 141.794 62.136 141.489 62.2724 141.247C62.4087 141.006 62.5948 140.812 62.8306 140.668C63.0664 140.523 63.332 140.413 63.6275 140.339C63.9258 140.263 64.234 140.207 64.5522 140.173C64.9357 140.134 65.2468 140.098 65.4854 140.067C65.7241 140.033 65.8974 139.982 66.0053 139.913C66.1161 139.842 66.1715 139.733 66.1715 139.585V139.56C66.1715 139.239 66.0763 138.99 65.886 138.814C65.6957 138.638 65.4215 138.55 65.0636 138.55C64.6857 138.55 64.386 138.632 64.1644 138.797C63.9457 138.962 63.7979 139.156 63.7212 139.381L62.2809 139.176C62.3945 138.778 62.582 138.446 62.8434 138.179C63.1048 137.909 63.4244 137.707 63.8022 137.574C64.18 137.438 64.5977 137.369 65.055 137.369C65.3704 137.369 65.6843 137.406 65.9968 137.48C66.3093 137.554 66.5948 137.676 66.8533 137.847C67.1119 138.014 67.3192 138.243 67.4755 138.533C67.6346 138.822 67.7141 139.185 67.7141 139.619V144H66.2312V143.101H66.18C66.0863 143.283 65.9542 143.453 65.7837 143.612C65.6161 143.768 65.4045 143.895 65.1488 143.991C64.896 144.085 64.5991 144.132 64.2582 144.132ZM64.6587 142.999C64.9684 142.999 65.2369 142.937 65.4641 142.815C65.6914 142.69 65.8661 142.526 65.9883 142.321C66.1133 142.116 66.1758 141.893 66.1758 141.652V140.881C66.1275 140.92 66.0451 140.957 65.9286 140.991C65.815 141.026 65.6871 141.055 65.5451 141.081C65.4031 141.107 65.2624 141.129 65.1232 141.149C64.984 141.169 64.8633 141.186 64.761 141.2C64.5309 141.232 64.3249 141.283 64.1431 141.354C63.9613 141.425 63.8178 141.524 63.7127 141.652C63.6076 141.777 63.555 141.939 63.555 142.138C63.555 142.422 63.6587 142.636 63.8661 142.781C64.0735 142.926 64.3377 142.999 64.6587 142.999ZM72.1119 146.591C71.5579 146.591 71.082 146.516 70.6843 146.365C70.2866 146.217 69.967 146.018 69.7255 145.768C69.484 145.518 69.3164 145.241 69.2227 144.938L70.6119 144.601C70.6744 144.729 70.7653 144.855 70.8846 144.98C71.0039 145.108 71.1644 145.213 71.3661 145.295C71.5707 145.381 71.8278 145.423 72.1374 145.423C72.5749 145.423 72.9371 145.317 73.2241 145.104C73.511 144.893 73.6545 144.547 73.6545 144.064V142.824H73.5778C73.4982 142.983 73.3817 143.146 73.2283 143.314C73.0778 143.482 72.8775 143.622 72.6275 143.736C72.3803 143.849 72.0692 143.906 71.6942 143.906C71.1914 143.906 70.7354 143.788 70.3263 143.553C69.9201 143.314 69.5962 142.959 69.3548 142.487C69.1161 142.013 68.9968 141.419 68.9968 140.706C68.9968 139.987 69.1161 139.381 69.3548 138.886C69.5962 138.389 69.9215 138.013 70.3306 137.757C70.7397 137.499 71.1957 137.369 71.6985 137.369C72.082 137.369 72.3974 137.435 72.6445 137.565C72.8945 137.693 73.0934 137.848 73.2411 138.03C73.3888 138.209 73.5011 138.378 73.5778 138.537H73.663V137.455H75.1843V144.107C75.1843 144.666 75.0508 145.129 74.7837 145.496C74.5167 145.862 74.1516 146.136 73.6886 146.318C73.2255 146.5 72.6999 146.591 72.1119 146.591ZM72.1246 142.696C72.4513 142.696 72.7298 142.616 72.9599 142.457C73.19 142.298 73.3647 142.07 73.484 141.771C73.6033 141.473 73.663 141.115 73.663 140.697C73.663 140.286 73.6033 139.925 73.484 139.615C73.3675 139.305 73.1942 139.065 72.9641 138.895C72.7369 138.722 72.457 138.635 72.1246 138.635C71.7809 138.635 71.494 138.724 71.2638 138.903C71.0337 139.082 70.8604 139.328 70.744 139.641C70.6275 139.95 70.5692 140.303 70.5692 140.697C70.5692 141.098 70.6275 141.449 70.744 141.75C70.8633 142.048 71.038 142.281 71.2681 142.449C71.5011 142.614 71.7866 142.696 72.1246 142.696ZM79.663 144.128C79.0067 144.128 78.44 143.991 77.9627 143.719C77.4883 143.443 77.1232 143.054 76.8675 142.551C76.6119 142.045 76.484 141.45 76.484 140.766C76.484 140.092 76.6119 139.501 76.8675 138.993C77.1261 138.482 77.4869 138.084 77.9499 137.8C78.413 137.513 78.957 137.369 79.582 137.369C79.9854 137.369 80.3661 137.435 80.7241 137.565C81.0849 137.693 81.4031 137.892 81.6786 138.162C81.957 138.432 82.1758 138.776 82.3349 139.193C82.494 139.608 82.5735 140.102 82.5735 140.676V141.149H77.2085V140.109H81.0948C81.092 139.814 81.0281 139.551 80.9031 139.321C80.7781 139.088 80.6033 138.905 80.3789 138.771C80.1573 138.638 79.8988 138.571 79.6033 138.571C79.288 138.571 79.011 138.648 78.7724 138.801C78.5337 138.952 78.3477 139.151 78.2141 139.398C78.0835 139.642 78.0167 139.911 78.0138 140.203V141.111C78.0138 141.491 78.0835 141.818 78.2227 142.091C78.3619 142.361 78.5565 142.568 78.8065 142.713C79.0565 142.855 79.3491 142.926 79.6843 142.926C79.9087 142.926 80.1119 142.895 80.2937 142.832C80.4755 142.767 80.6332 142.672 80.7667 142.547C80.9002 142.422 81.0011 142.267 81.0692 142.082L82.5096 142.244C82.4187 142.625 82.2454 142.957 81.9897 143.241C81.7369 143.523 81.413 143.741 81.0181 143.898C80.6232 144.051 80.1715 144.128 79.663 144.128ZM15.8608 159V150.273H19.2017C19.8324 150.273 20.3565 150.372 20.7741 150.571C21.1946 150.767 21.5085 151.036 21.7159 151.376C21.9261 151.717 22.0312 152.104 22.0312 152.536C22.0312 152.891 21.9631 153.195 21.8267 153.447C21.6903 153.697 21.5071 153.901 21.277 154.057C21.0469 154.213 20.7898 154.325 20.5057 154.393V154.479C20.8153 154.496 21.1122 154.591 21.3963 154.764C21.6832 154.935 21.9176 155.176 22.0994 155.489C22.2813 155.801 22.3722 156.179 22.3722 156.622C22.3722 157.074 22.2628 157.48 22.044 157.841C21.8253 158.199 21.4957 158.482 21.0554 158.689C20.6151 158.896 20.0611 159 19.3935 159H15.8608ZM17.4418 157.679H19.142C19.7159 157.679 20.1293 157.57 20.3821 157.351C20.6378 157.129 20.7656 156.845 20.7656 156.499C20.7656 156.24 20.7017 156.007 20.5739 155.8C20.446 155.589 20.2642 155.425 20.0284 155.305C19.7926 155.183 19.5114 155.122 19.1847 155.122H17.4418V157.679ZM17.4418 153.984H19.0057C19.2784 153.984 19.5241 153.935 19.7429 153.835C19.9616 153.733 20.1335 153.589 20.2585 153.405C20.3864 153.217 20.4503 152.996 20.4503 152.74C20.4503 152.402 20.331 152.124 20.0923 151.905C19.8565 151.686 19.5057 151.577 19.0398 151.577H17.4418V153.984ZM26.5344 159.128C25.8952 159.128 25.3413 158.987 24.8725 158.706C24.4038 158.425 24.0401 158.031 23.7816 157.526C23.5259 157.02 23.3981 156.429 23.3981 155.753C23.3981 155.077 23.5259 154.484 23.7816 153.976C24.0401 153.467 24.4038 153.072 24.8725 152.791C25.3413 152.51 25.8952 152.369 26.5344 152.369C27.1737 152.369 27.7276 152.51 28.1964 152.791C28.6651 153.072 29.0273 153.467 29.283 153.976C29.5415 154.484 29.6708 155.077 29.6708 155.753C29.6708 156.429 29.5415 157.02 29.283 157.526C29.0273 158.031 28.6651 158.425 28.1964 158.706C27.7276 158.987 27.1737 159.128 26.5344 159.128ZM26.543 157.892C26.8896 157.892 27.1793 157.797 27.4123 157.607C27.6452 157.413 27.8185 157.155 27.9322 156.831C28.0487 156.507 28.1069 156.146 28.1069 155.749C28.1069 155.348 28.0487 154.986 27.9322 154.662C27.8185 154.335 27.6452 154.075 27.4123 153.882C27.1793 153.689 26.8896 153.592 26.543 153.592C26.1879 153.592 25.8924 153.689 25.6566 153.882C25.4237 154.075 25.2489 154.335 25.1325 154.662C25.0188 154.986 24.962 155.348 24.962 155.749C24.962 156.146 25.0188 156.507 25.1325 156.831C25.2489 157.155 25.4237 157.413 25.6566 157.607C25.8924 157.797 26.1879 157.892 26.543 157.892ZM33.8352 159.128C33.196 159.128 32.642 158.987 32.1733 158.706C31.7045 158.425 31.3409 158.031 31.0824 157.526C30.8267 157.02 30.6989 156.429 30.6989 155.753C30.6989 155.077 30.8267 154.484 31.0824 153.976C31.3409 153.467 31.7045 153.072 32.1733 152.791C32.642 152.51 33.196 152.369 33.8352 152.369C34.4744 152.369 35.0284 152.51 35.4972 152.791C35.9659 153.072 36.3281 153.467 36.5838 153.976C36.8423 154.484 36.9716 155.077 36.9716 155.753C36.9716 156.429 36.8423 157.02 36.5838 157.526C36.3281 158.031 35.9659 158.425 35.4972 158.706C35.0284 158.987 34.4744 159.128 33.8352 159.128ZM33.8438 157.892C34.1903 157.892 34.4801 157.797 34.7131 157.607C34.946 157.413 35.1193 157.155 35.233 156.831C35.3494 156.507 35.4077 156.146 35.4077 155.749C35.4077 155.348 35.3494 154.986 35.233 154.662C35.1193 154.335 34.946 154.075 34.7131 153.882C34.4801 153.689 34.1903 153.592 33.8438 153.592C33.4886 153.592 33.1932 153.689 32.9574 153.882C32.7244 154.075 32.5497 154.335 32.4332 154.662C32.3196 154.986 32.2628 155.348 32.2628 155.749C32.2628 156.146 32.3196 156.507 32.4332 156.831C32.5497 157.155 32.7244 157.413 32.9574 157.607C33.1932 157.797 33.4886 157.892 33.8438 157.892ZM39.6871 156.946L39.6829 155.084H39.93L42.2823 152.455H44.0849L41.1914 155.676H40.8718L39.6871 156.946ZM38.2809 159V150.273H39.8235V159H38.2809ZM42.3888 159L40.2582 156.021L41.2979 154.935L44.234 159H42.3888ZM47.7411 159.128C47.0849 159.128 46.5181 158.991 46.0408 158.719C45.5664 158.443 45.2013 158.054 44.9457 157.551C44.69 157.045 44.5621 156.45 44.5621 155.766C44.5621 155.092 44.69 154.501 44.9457 153.993C45.2042 153.482 45.565 153.084 46.0281 152.8C46.4911 152.513 47.0352 152.369 47.6602 152.369C48.0636 152.369 48.4442 152.435 48.8022 152.565C49.163 152.693 49.4812 152.892 49.7567 153.162C50.0352 153.432 50.2539 153.776 50.413 154.193C50.5721 154.608 50.6516 155.102 50.6516 155.676V156.149H45.2866V155.109H49.1729C49.1701 154.814 49.1062 154.551 48.9812 154.321C48.8562 154.088 48.6815 153.905 48.457 153.771C48.2354 153.638 47.9769 153.571 47.6815 153.571C47.3661 153.571 47.0891 153.648 46.8505 153.801C46.6119 153.952 46.4258 154.151 46.2923 154.398C46.1616 154.642 46.0948 154.911 46.092 155.203V156.111C46.092 156.491 46.1616 156.818 46.3008 157.091C46.44 157.361 46.6346 157.568 46.8846 157.713C47.1346 157.855 47.4272 157.926 47.7624 157.926C47.9869 157.926 48.19 157.895 48.3718 157.832C48.5536 157.767 48.7113 157.672 48.8448 157.547C48.9783 157.422 49.0792 157.267 49.1474 157.082L50.5877 157.244C50.4968 157.625 50.3235 157.957 50.0678 158.241C49.815 158.523 49.4911 158.741 49.0962 158.898C48.7013 159.051 48.2496 159.128 47.7411 159.128ZM54.8544 159.128C54.1982 159.128 53.6314 158.991 53.1541 158.719C52.6797 158.443 52.3146 158.054 52.0589 157.551C51.8033 157.045 51.6754 156.45 51.6754 155.766C51.6754 155.092 51.8033 154.501 52.0589 153.993C52.3175 153.482 52.6783 153.084 53.1413 152.8C53.6044 152.513 54.1484 152.369 54.7734 152.369C55.1768 152.369 55.5575 152.435 55.9155 152.565C56.2763 152.693 56.5945 152.892 56.87 153.162C57.1484 153.432 57.3672 153.776 57.5263 154.193C57.6854 154.608 57.7649 155.102 57.7649 155.676V156.149H52.3999V155.109H56.2862C56.2834 154.814 56.2195 154.551 56.0945 154.321C55.9695 154.088 55.7947 153.905 55.5703 153.771C55.3487 153.638 55.0902 153.571 54.7947 153.571C54.4794 153.571 54.2024 153.648 53.9638 153.801C53.7251 153.952 53.5391 154.151 53.4055 154.398C53.2749 154.642 53.2081 154.911 53.2053 155.203V156.111C53.2053 156.491 53.2749 156.818 53.4141 157.091C53.5533 157.361 53.7479 157.568 53.9979 157.713C54.2479 157.855 54.5405 157.926 54.8757 157.926C55.1001 157.926 55.3033 157.895 55.4851 157.832C55.6669 157.767 55.8246 157.672 55.9581 157.547C56.0916 157.422 56.1925 157.267 56.2607 157.082L57.701 157.244C57.6101 157.625 57.4368 157.957 57.1811 158.241C56.9283 158.523 56.6044 158.741 56.2095 158.898C55.8146 159.051 55.3629 159.128 54.8544 159.128ZM59.07 161.455V152.455H60.587V153.537H60.6765C60.756 153.378 60.8683 153.209 61.0131 153.03C61.158 152.848 61.354 152.693 61.6012 152.565C61.8484 152.435 62.1637 152.369 62.5472 152.369C63.0529 152.369 63.5089 152.499 63.9151 152.757C64.3242 153.013 64.6481 153.392 64.8867 153.895C65.1282 154.395 65.2489 155.009 65.2489 155.736C65.2489 156.455 65.131 157.065 64.8952 157.568C64.6594 158.071 64.3384 158.455 63.9322 158.719C63.5259 158.983 63.0657 159.115 62.5515 159.115C62.1765 159.115 61.8654 159.053 61.6183 158.928C61.3711 158.803 61.1722 158.652 61.0217 158.476C60.8739 158.297 60.7589 158.128 60.6765 157.969H60.6126V161.455H59.07ZM60.5827 155.727C60.5827 156.151 60.6424 156.521 60.7617 156.839C60.8839 157.158 61.0586 157.406 61.2859 157.585C61.516 157.761 61.7944 157.849 62.1211 157.849C62.462 157.849 62.7475 157.759 62.9776 157.577C63.2077 157.392 63.381 157.141 63.4975 156.822C63.6168 156.501 63.6765 156.136 63.6765 155.727C63.6765 155.321 63.6183 154.96 63.5018 154.645C63.3853 154.33 63.212 154.082 62.9819 153.903C62.7518 153.724 62.4648 153.635 62.1211 153.635C61.7915 153.635 61.5117 153.722 61.2816 153.895C61.0515 154.068 60.8768 154.311 60.7575 154.624C60.641 154.936 60.5827 155.304 60.5827 155.727ZM66.57 159V152.455H68.1126V159H66.57ZM67.3455 151.526C67.1012 151.526 66.891 151.445 66.7148 151.283C66.5387 151.118 66.4506 150.92 66.4506 150.69C66.4506 150.457 66.5387 150.26 66.7148 150.098C66.891 149.933 67.1012 149.851 67.3455 149.851C67.5927 149.851 67.8029 149.933 67.9762 150.098C68.1523 150.26 68.2404 150.457 68.2404 150.69C68.2404 150.92 68.1523 151.118 67.9762 151.283C67.8029 151.445 67.5927 151.526 67.3455 151.526ZM71.2415 155.165V159H69.6989V152.455H71.1733V153.567H71.25C71.4006 153.2 71.6406 152.909 71.9702 152.693C72.3026 152.477 72.7131 152.369 73.2017 152.369C73.6534 152.369 74.0469 152.466 74.3821 152.659C74.7202 152.852 74.9815 153.132 75.1662 153.499C75.3537 153.865 75.446 154.31 75.4432 154.832V159H73.9006V155.071C73.9006 154.634 73.7869 154.291 73.5597 154.044C73.3352 153.797 73.0241 153.673 72.6264 153.673C72.3565 153.673 72.1165 153.733 71.9062 153.852C71.6989 153.969 71.5355 154.138 71.4162 154.359C71.2997 154.581 71.2415 154.849 71.2415 155.165ZM79.858 161.591C79.304 161.591 78.8281 161.516 78.4304 161.365C78.0327 161.217 77.7131 161.018 77.4716 160.768C77.2301 160.518 77.0625 160.241 76.9688 159.938L78.358 159.601C78.4205 159.729 78.5114 159.855 78.6307 159.98C78.75 160.108 78.9105 160.213 79.1122 160.295C79.3168 160.381 79.5739 160.423 79.8835 160.423C80.321 160.423 80.6832 160.317 80.9702 160.104C81.2571 159.893 81.4006 159.547 81.4006 159.064V157.824H81.3239C81.2443 157.983 81.1278 158.146 80.9744 158.314C80.8239 158.482 80.6236 158.622 80.3736 158.736C80.1264 158.849 79.8153 158.906 79.4403 158.906C78.9375 158.906 78.4815 158.788 78.0724 158.553C77.6662 158.314 77.3423 157.959 77.1009 157.487C76.8622 157.013 76.7429 156.419 76.7429 155.706C76.7429 154.987 76.8622 154.381 77.1009 153.886C77.3423 153.389 77.6676 153.013 78.0767 152.757C78.4858 152.499 78.9418 152.369 79.4446 152.369C79.8281 152.369 80.1435 152.435 80.3906 152.565C80.6406 152.693 80.8395 152.848 80.9872 153.03C81.1349 153.209 81.2472 153.378 81.3239 153.537H81.4091V152.455H82.9304V159.107C82.9304 159.666 82.7969 160.129 82.5298 160.496C82.2628 160.862 81.8977 161.136 81.4347 161.318C80.9716 161.5 80.446 161.591 79.858 161.591ZM79.8707 157.696C80.1974 157.696 80.4759 157.616 80.706 157.457C80.9361 157.298 81.1108 157.07 81.2301 156.771C81.3494 156.473 81.4091 156.115 81.4091 155.697C81.4091 155.286 81.3494 154.925 81.2301 154.615C81.1136 154.305 80.9403 154.065 80.7102 153.895C80.483 153.722 80.2031 153.635 79.8707 153.635C79.527 153.635 79.2401 153.724 79.0099 153.903C78.7798 154.082 78.6065 154.328 78.4901 154.641C78.3736 154.95 78.3153 155.303 78.3153 155.697C78.3153 156.098 78.3736 156.449 78.4901 156.75C78.6094 157.048 78.7841 157.281 79.0142 157.449C79.2472 157.614 79.5327 157.696 79.8707 157.696ZM18.2216 174.115C17.7074 174.115 17.2472 173.983 16.8409 173.719C16.4347 173.455 16.1136 173.071 15.8778 172.568C15.642 172.065 15.5241 171.455 15.5241 170.736C15.5241 170.009 15.6435 169.395 15.8821 168.895C16.1236 168.392 16.4489 168.013 16.858 167.757C17.267 167.499 17.723 167.369 18.2259 167.369C18.6094 167.369 18.9247 167.435 19.1719 167.565C19.419 167.693 19.6151 167.848 19.7599 168.03C19.9048 168.209 20.017 168.378 20.0966 168.537H20.1605V165.273H21.7074V174H20.1903V172.969H20.0966C20.017 173.128 19.902 173.297 19.7514 173.476C19.6009 173.652 19.402 173.803 19.1548 173.928C18.9077 174.053 18.5966 174.115 18.2216 174.115ZM18.652 172.849C18.9787 172.849 19.2571 172.761 19.4872 172.585C19.7173 172.406 19.892 172.158 20.0114 171.839C20.1307 171.521 20.1903 171.151 20.1903 170.727C20.1903 170.304 20.1307 169.936 20.0114 169.624C19.8949 169.311 19.7216 169.068 19.4915 168.895C19.2642 168.722 18.9844 168.635 18.652 168.635C18.3082 168.635 18.0213 168.724 17.7912 168.903C17.5611 169.082 17.3878 169.33 17.2713 169.645C17.1548 169.96 17.0966 170.321 17.0966 170.727C17.0966 171.136 17.1548 171.501 17.2713 171.822C17.3906 172.141 17.5653 172.392 17.7955 172.577C18.0284 172.759 18.3139 172.849 18.652 172.849ZM25.2347 174.132C24.82 174.132 24.4464 174.058 24.114 173.911C23.7844 173.76 23.5231 173.538 23.3299 173.246C23.1396 172.953 23.0444 172.592 23.0444 172.163C23.0444 171.794 23.1126 171.489 23.2489 171.247C23.3853 171.006 23.5714 170.812 23.8072 170.668C24.043 170.523 24.3086 170.413 24.604 170.339C24.9023 170.263 25.2106 170.207 25.5288 170.173C25.9123 170.134 26.2234 170.098 26.462 170.067C26.7006 170.033 26.8739 169.982 26.9819 169.913C27.0927 169.842 27.1481 169.733 27.1481 169.585V169.56C27.1481 169.239 27.0529 168.99 26.8626 168.814C26.6722 168.638 26.3981 168.55 26.0401 168.55C25.6623 168.55 25.3626 168.632 25.141 168.797C24.9222 168.962 24.7745 169.156 24.6978 169.381L23.2575 169.176C23.3711 168.778 23.5586 168.446 23.82 168.179C24.0813 167.909 24.4009 167.707 24.7788 167.574C25.1566 167.438 25.5742 167.369 26.0316 167.369C26.3469 167.369 26.6609 167.406 26.9734 167.48C27.2859 167.554 27.5714 167.676 27.8299 167.847C28.0884 168.014 28.2958 168.243 28.4521 168.533C28.6112 168.822 28.6907 169.185 28.6907 169.619V174H27.2077V173.101H27.1566C27.0629 173.283 26.9308 173.453 26.7603 173.612C26.5927 173.768 26.381 173.895 26.1254 173.991C25.8725 174.085 25.5756 174.132 25.2347 174.132ZM25.6353 172.999C25.945 172.999 26.2134 172.937 26.4407 172.815C26.668 172.69 26.8427 172.526 26.9648 172.321C27.0898 172.116 27.1523 171.893 27.1523 171.652V170.881C27.104 170.92 27.0217 170.957 26.9052 170.991C26.7915 171.026 26.6637 171.055 26.5217 171.081C26.3796 171.107 26.239 171.129 26.0998 171.149C25.9606 171.169 25.8398 171.186 25.7376 171.2C25.5075 171.232 25.3015 171.283 25.1197 171.354C24.9379 171.425 24.7944 171.524 24.6893 171.652C24.5842 171.777 24.5316 171.939 24.5316 172.138C24.5316 172.422 24.6353 172.636 24.8427 172.781C25.0501 172.926 25.3143 172.999 25.6353 172.999ZM33.5103 167.455V168.648H29.7475V167.455H33.5103ZM30.6765 165.886H32.2191V172.031C32.2191 172.239 32.2504 172.398 32.3129 172.509C32.3782 172.616 32.4634 172.69 32.5685 172.73C32.6737 172.77 32.7901 172.79 32.918 172.79C33.0146 172.79 33.1026 172.783 33.1822 172.768C33.2646 172.754 33.3271 172.741 33.3697 172.73L33.6296 173.936C33.5472 173.964 33.4293 173.996 33.2759 174.03C33.1254 174.064 32.9407 174.084 32.7219 174.089C32.3356 174.101 31.9876 174.043 31.6779 173.915C31.3683 173.784 31.1225 173.582 30.9407 173.31C30.7617 173.037 30.6737 172.696 30.6765 172.287V165.886ZM36.6839 174.132C36.2692 174.132 35.8956 174.058 35.5632 173.911C35.2337 173.76 34.9723 173.538 34.7791 173.246C34.5888 172.953 34.4936 172.592 34.4936 172.163C34.4936 171.794 34.5618 171.489 34.6982 171.247C34.8345 171.006 35.0206 170.812 35.2564 170.668C35.4922 170.523 35.7578 170.413 36.0533 170.339C36.3516 170.263 36.6598 170.207 36.978 170.173C37.3615 170.134 37.6726 170.098 37.9112 170.067C38.1499 170.033 38.3232 169.982 38.4311 169.913C38.5419 169.842 38.5973 169.733 38.5973 169.585V169.56C38.5973 169.239 38.5021 168.99 38.3118 168.814C38.1214 168.638 37.8473 168.55 37.4893 168.55C37.1115 168.55 36.8118 168.632 36.5902 168.797C36.3714 168.962 36.2237 169.156 36.147 169.381L34.7067 169.176C34.8203 168.778 35.0078 168.446 35.2692 168.179C35.5305 167.909 35.8501 167.707 36.228 167.574C36.6058 167.438 37.0234 167.369 37.4808 167.369C37.7962 167.369 38.1101 167.406 38.4226 167.48C38.7351 167.554 39.0206 167.676 39.2791 167.847C39.5376 168.014 39.745 168.243 39.9013 168.533C40.0604 168.822 40.1399 169.185 40.1399 169.619V174H38.657V173.101H38.6058C38.5121 173.283 38.38 173.453 38.2095 173.612C38.0419 173.768 37.8303 173.895 37.5746 173.991C37.3217 174.085 37.0249 174.132 36.6839 174.132ZM37.0845 172.999C37.3942 172.999 37.6626 172.937 37.8899 172.815C38.1172 172.69 38.2919 172.526 38.4141 172.321C38.5391 172.116 38.6016 171.893 38.6016 171.652V170.881C38.5533 170.92 38.4709 170.957 38.3544 170.991C38.2408 171.026 38.1129 171.055 37.9709 171.081C37.8288 171.107 37.6882 171.129 37.549 171.149C37.4098 171.169 37.2891 171.186 37.1868 171.2C36.9567 171.232 36.7507 171.283 36.5689 171.354C36.3871 171.425 36.2436 171.524 36.1385 171.652C36.0334 171.777 35.9808 171.939 35.9808 172.138C35.9808 172.422 36.0845 172.636 36.2919 172.781C36.4993 172.926 36.7635 172.999 37.0845 172.999ZM42.6413 174.094C42.3828 174.094 42.1612 174.003 41.9766 173.821C41.7919 173.639 41.701 173.418 41.7038 173.156C41.701 172.901 41.7919 172.682 41.9766 172.5C42.1612 172.318 42.3828 172.227 42.6413 172.227C42.8913 172.227 43.1087 172.318 43.2933 172.5C43.4808 172.682 43.576 172.901 43.5788 173.156C43.576 173.33 43.5305 173.487 43.4425 173.629C43.3572 173.771 43.2436 173.885 43.1016 173.97C42.9624 174.053 42.8089 174.094 42.6413 174.094Z" fill="white"/>
<path d="M453.826 239.832L510.68 206.544L532.803 173.919" stroke="black"/>
<path d="M147.688 247.308L82.737 226.589L56.6511 195.893" stroke="black"/>
<path d="M341 195L366.585 178.116L394.189 156.224C397.756 153.394 400.251 149.432 401.262 144.993L409 111" stroke="black"/>
<path d="M239.056 192.639L213.341 175.364L186.501 153.352C182.628 150.176 180.088 145.661 179.383 140.701L174.452 106" stroke="black"/>
<line x1="292.501" y1="195.035" x2="285.501" y2="94.0346" stroke="black"/>
</svg>
